<svg version="1.0" xmlns="http://www.w3.org/2000/svg" width="682.667" height="682.667" viewBox="0 0 512 512"><path d="M329.4 213.1c-34.7 39-42.2 46.9-43.9 46.5-1.1-.3-3.7-.9-5.8-1.2-2.7-.5-3.8-1.2-4.1-2.8-.3-1.1-1.4-15.4-2.6-31.6-1.1-16.2-2.3-30.4-2.5-31.6-.6-2.7-14.1-19.6-16.6-20.8-1.4-.7-2.6-.4-4.4 1-1.4 1-12 16.7-23.5 34.9-11.6 18.1-21.4 33.3-21.8 33.7-.4.4-20.7-3.8-45.2-9.3-41.2-9.3-45.1-10-52.5-9.6-9 .5-14.6 2.7-20.5 8.1-3.3 3.1-4.2 3.3-17.7 5-16.8 2-34.6 6.7-49.7 13C6.1 253.7 4 255.2 4 259.1c0 4.7 14.8 16.8 29.7 24.3 6.4 3.3 6.7 3.5 4.3 4.4-1.4.5-7.2 2.6-13 4.7s-11.1 4.2-11.7 4.8c-1.7 1.2-1.7 6.2 0 7.5 2.2 1.8 32.2 11.2 35.8 11.2 1.9 0 12.5-1.8 23.5-4l20.2-3.9 16.3 5.5c15.8 5.3 44.7 13.8 55.8 16.4l5.3 1.3-3.1 2.4c-3.4 2.6-3.9 4.9-1.8 7.7 1.2 1.6 4.6 2.1 25.8 3.8l24.4 1.9 5.1-2.1c4.5-1.8 5.8-1.9 12-1 3.8.6 19.3 1.5 34.4 2 23.9.9 28.2.8 32.9-.6 6.9-2 14.2-8.7 17.9-16.5l2.8-5.9 1.6 3.4c9.7 20.1 37.1 20.7 46.6 1 1.4-3 1.7-3.2 6.1-2.8 34.8 3.1 42.4 3.4 44.3 1.8 2.5-2.3 2.3-6.1-.4-7.8-1.3-.7-6.1-1.6-10.8-2-4.7-.3-14.4-1.1-21.6-1.8l-13.2-1.1-.4-7.6c-.3-4.5-1.3-9.5-2.4-12.1-1.7-3.9-1.9-5.1-.9-8.5l1.2-4 4.9.2c2.7.2 12.3.7 21.4 1.3 9.1.5 28.4 1.7 43 2.5 14.6.9 28.5 1.8 31 2 2.5.2 11.3.7 19.6 1l15.2.7 1.7-2.6c2.9-4.4.6-6.3-18.6-14.9l-17.4-7.7-47.5-3.6c-26.1-2-47.7-3.8-47.9-4-.2-.2 2.6-15.3 6.3-33.6 3.6-18.3 6.6-34.3 6.6-35.5 0-2.1-7.5-15.7-10.8-19.6-.8-.9-2.7-1.7-4.3-1.7-2.3 0-8.6 6.6-44.5 47.1zm46.7-28.7l2.3 4.4-8.7 43.4c-4.9 23.8-9.1 44-9.5 44.9-.6 1.5-1.9 1.3-12.2-1.7-6.3-1.8-19.7-5.4-29.8-8-16.8-4.4-18.1-4.9-17-6.5 2.4-3.2 71.3-80.8 71.9-80.8.3-.1 1.7 1.9 3 4.3zm-115.8 15c.6 4.9 4.4 56.5 4.6 61.6 0 1.4.5 7.2 1.1 12.8.7 5.7.9 10.6.6 10.9-.3.3-13.5-4.1-29.3-9.7s-30-10.7-31.4-11.2l-2.7-.9 19-29.7c10.5-16.3 21.5-33.7 24.7-38.5l5.6-8.9 3.6 4.2c2.8 3.3 3.8 5.4 4.2 9.4zm-147.9 33.5c1 1.5-1.2 6.1-2.6 5.6-.7-.2-4-.9-7.2-1.5-5.1-1.1-5.7-1.4-4-2.3 1.6-.9 6.1-1.9 12.1-2.6.6 0 1.4.3 1.7.8zm47.3 10.1c19.6 4.4 36 8 36.5 8 1.6 0 .8 2.1-2.7 7.3-3.9 5.8-4.4 8.6-1.7 10.9.9.8 17.6 7.2 37.1 14.2 19.5 6.9 35.7 12.8 35.9 13.1.3.3 0 2.8-.6 5.6-2.3 10-.9 20.4 4.1 29.4l2.6 4.5-5.7-.1c-3.1-.1-8.8-.4-12.7-.8l-7-.6 7.2-3.2c5.7-2.5 7.4-3.7 7.9-5.7 1.2-4.8-2.1-6.9-17.9-11.2-5.2-1.4-13.5-2.7-19.2-3.1l-10-.6-13.5 6.8-13.5 6.8-18.5-4.6c-23.1-5.8-53.3-14.9-52.3-15.8.5-.3 18.6-4.1 40.3-8.3 21.7-4.2 40.7-8.1 42.2-8.7 3-1.2 4.2-4.3 2.7-7.2-2.3-4.1-32.4-15.7-50.9-19.5-6.5-1.4-12.9-2-20.5-1.9l-11 .2-31.3 11.4-31.3 11.4-7.2-2.8c-13.3-5.1-32.1-17-29.4-18.7C25.2 256 49 248.9 64 246.5c14.2-2.3 21-2.2 36.2.9 17.2 3.5 18.3 3.1 21.3-6.1 1.1-3.5 2.1-6.3 2.3-6.3.1 0 16.3 3.6 35.9 8zM398 269c7.4.6 16.2 1.2 19.5 1.5 3.3.3 15.9 1.2 28 2.1 19.1 1.3 28.5 2.7 27.2 4-.2.2-11.1-.3-24.3-1.1-13.1-.8-31.8-1.9-41.4-2.5-32.4-1.8-34-2-34-4.2 0-1.7.5-1.8 5.8-1.3 3.1.3 11.8 1 19.2 1.5zm-250.5 1.6c8.2 1.6 29.1 8 29.9 9.2.2.4-5.9 2-13.7 3.5-7.8 1.5-36.8 7.3-64.4 12.7l-50.1 9.9-7.8-2.6-7.7-2.6 42.4-15.4c23.3-8.5 44.4-15.8 46.9-16.2 5.6-.9 14.1-.4 24.5 1.5zm140.8.5c13.5 3.1 41.1 10.1 41.6 10.5.2.2-1.1 2-3 4.1-1.9 2.1-4.3 5.7-5.3 8.1l-2 4.3-2.3-5c-3.3-6.9-11.1-13.7-18-15.7-6.3-1.8-11.3-1.4-18 1.6l-4.3 1.9v-6c0-3.5.4-5.9 1.1-5.9.6 0 5.2.9 10.2 2.1zm10 17c7.2 3.7 12.7 13.6 12.7 22.8 0 18.1-13.5 30-26.1 22.9-7-3.9-10.9-12-10.9-22.7 0-9.9 4.8-18.7 12.5-22.9 2.6-1.5 9-1.5 11.8-.1zm54.8 1.2c13.4 9 12.6 33.4-1.4 40.5-4.4 2.3-5.1 2.4-9 1.2-14.7-4.4-18.4-28.7-6-40.1 3.4-3.2 4.7-3.7 9.4-3.8 2.2-.1 4.9.8 7 2.2zm-118.9 33.8c3.2.6 5.6 1.5 5.3 1.9-.2.3-3.5 1.9-7.2 3.5-3.7 1.5-9.3 3.9-12.2 5.2-5.2 2.3-6.2 2.4-17.3 1.7-6.5-.3-11.8-.9-11.8-1.3 0-.3 5.8-3.4 12.8-6.8 12.2-6 13-6.2 18.7-5.8 3.3.3 8.6 1 11.7 1.6z"/></svg>