<?xml version="1.0" encoding="utf-8"?><svg viewBox="0 0 50 50" xmlns="http://www.w3.org/2000/svg" xmlns:xlink="http://www.w3.org/1999/xlink"><style>:root>svg{display:none}:root>svg:target{display:block}</style><svg viewBox="0 0 24 24" id="email" xmlns="http://www.w3.org/2000/svg"><path d="M12 0C5.371 0 0 5.371 0 12c0 6.625 5.371 12 12 12s12-5.375 12-12c0-6.629-5.371-12-12-12zm0 4.215l7.102 4.43H4.898zm7.191 11.5h-.003c0 .71-.575 1.285-1.286 1.285H6.098a1.283 1.283 0 01-1.285-1.285v-6.79c0-.077.007-.148.019-.222l6.785 4.23a.084.084 0 00.024.016.06.06 0 01.027.016.76.76 0 00.164.058.622.622 0 00.336 0c.004 0 .012 0 .016-.003a.678.678 0 00.148-.055c.008-.008.02-.012.027-.016.008-.004.016-.008.024-.015l6.785-4.23c.016.073.023.144.023.222zm0 0"/></svg><svg viewBox="0 0 50 50" id="menu" xmlns="http://www.w3.org/2000/svg"><path d="M25 0C11.215 0 0 11.215 0 25s11.215 25 25 25 25-11.215 25-25S38.785 0 25 0zm10.715 36.605h-21.43a1.785 1.785 0 110-3.57h21.43a1.785 1.785 0 110 3.57zm0-9.82h-21.43c-.984 0-1.785-.8-1.785-1.785 0-.984.8-1.785 1.785-1.785h21.43c.984 0 1.785.8 1.785 1.785 0 .984-.8 1.785-1.785 1.785zm0-9.82h-21.43a1.785 1.785 0 110-3.57h21.43a1.785 1.785 0 110 3.57zm0 0"/></svg><svg viewBox="0 0 24 24" id="odnok" xmlns="http://www.w3.org/2000/svg"><path d="M11.98 9.922a2.055 2.055 0 002.051-2.07 2.055 2.055 0 00-2.062-2.059c-1.153 0-2.074.93-2.063 2.086a2.054 2.054 0 002.074 2.043zm0 0"/><path d="M11.969 0C5.359 0 0 5.36 0 11.969c0 6.61 5.36 11.969 11.969 11.969 6.61 0 11.969-5.36 11.969-11.97C23.938 5.36 18.578 0 11.967 0zm.02 3.64c2.327.005 4.198 1.915 4.187 4.27-.012 2.305-1.914 4.168-4.238 4.16-2.305-.008-4.196-1.918-4.18-4.222a4.221 4.221 0 014.23-4.207zm4.718 10.087a4.999 4.999 0 01-1.824 1.18c-.653.253-1.363.382-2.07.464.105.117.156.176.222.242.961.961 1.922 1.922 2.88 2.89.323.329.394.735.214 1.118-.195.422-.637.695-1.067.668-.273-.02-.484-.156-.675-.348-.723-.726-1.461-1.441-2.168-2.183-.207-.215-.309-.176-.489.012-.73.75-1.468 1.488-2.214 2.222-.332.328-.73.39-1.118.2-.414-.2-.675-.622-.656-1.044.016-.285.156-.503.352-.699.949-.949 1.894-1.898 2.844-2.847.062-.063.12-.13.21-.227-1.289-.137-2.453-.453-3.453-1.234-.12-.098-.25-.192-.363-.301-.437-.418-.48-.899-.137-1.39.297-.427.793-.54 1.309-.294.101.047.195.106.285.168 1.86 1.278 4.41 1.313 6.277.055.184-.14.383-.254.61-.313a.952.952 0 011.097.438c.274.445.27.879-.066 1.223zm0 0"/></svg><svg viewBox="0 0 24 24" id="search" xmlns="http://www.w3.org/2000/svg"><path d="M22.926 17.61l-3.512-3.512a10.08 10.08 0 00.77-3.871c0-5.567-4.528-10.094-10.09-10.094C4.527.133 0 4.66 0 10.227 0 15.793 4.527 20.32 10.094 20.32c1.48 0 2.922-.32 4.242-.933l3.406 3.406a3.646 3.646 0 002.594 1.074c.977 0 1.898-.383 2.59-1.074A3.646 3.646 0 0024 20.199c0-.976-.383-1.898-1.074-2.59zm-1.453 3.726a1.6 1.6 0 01-2.274 0l-4.515-4.516a8.035 8.035 0 113.445-6.594 7.986 7.986 0 01-1.23 4.266l4.574 4.574a1.608 1.608 0 010 2.27zm0 0"/><path d="M10.094 4.48a5.753 5.753 0 00-5.746 5.747 5.753 5.753 0 005.746 5.746 5.753 5.753 0 005.746-5.746 5.753 5.753 0 00-5.746-5.747zm0 9.434a3.69 3.69 0 01-3.688-3.687 3.69 3.69 0 013.688-3.688 3.692 3.692 0 013.687 3.688 3.692 3.692 0 01-3.687 3.687zm0 0"/></svg><svg viewBox="0 0 24 24" id="telegram" xmlns="http://www.w3.org/2000/svg"><path d="M12 0C5.371 0 0 5.371 0 12s5.371 12 12 12 12-5.371 12-12S18.629 0 12 0zm5.895 8.223l-1.97 9.277c-.148.66-.538.82-1.085.508l-3-2.207-1.445 1.39a.766.766 0 01-.602.297h-.004l.215-3.054 5.559-5.024c.238-.21-.055-.332-.376-.12L8.32 13.616l-2.96-.926c-.641-.203-.657-.636.136-.953L17.063 7.28c.535-.195 1.003.13.832.942zm0 0"/></svg><svg viewBox="0 0 24 24" id="up" xmlns="http://www.w3.org/2000/svg"><path d="M12 24C5.4 24 0 18.6 0 12S5.4 0 12 0s12 5.4 12 12-5.4 12-12 12zm0-22C6.5 2 2 6.5 2 12s4.5 10 10 10 10-4.5 10-10S17.5 2 12 2z"/><path d="M15 14c-.3 0-.5-.1-.7-.3L12 11.4l-2.3 2.3c-.4.4-1 .4-1.4 0s-.4-1 0-1.4l3-3c.4-.4 1-.4 1.4 0l3 3c.4.4.4 1 0 1.4-.2.2-.4.3-.7.3z"/></svg></svg>