<?xml version="1.0" encoding="UTF-8"?>
<svg xmlns="http://www.w3.org/2000/svg" xmlns:xlink="http://www.w3.org/1999/xlink" width="24px" height="24px" viewBox="0 0 24 24" version="1.1">
<g id="surface1">
<path style=" stroke:none;fill-rule:nonzero;fill:rgb(0%,0%,0%);fill-opacity:1;" d="M 11.980469 9.921875 C 13.125 9.914062 14.035156 8.996094 14.03125 7.851562 C 14.027344 6.707031 13.113281 5.792969 11.96875 5.792969 C 10.816406 5.792969 9.894531 6.722656 9.90625 7.878906 C 9.914062 9.019531 10.835938 9.925781 11.980469 9.921875 Z M 11.980469 9.921875 "/>
<path style=" stroke:none;fill-rule:nonzero;fill:rgb(0%,0%,0%);fill-opacity:1;" d="M 11.96875 0 C 5.359375 0 0 5.359375 0 11.96875 C 0 18.578125 5.359375 23.9375 11.96875 23.9375 C 18.578125 23.9375 23.9375 18.578125 23.9375 11.96875 C 23.9375 5.359375 18.578125 0 11.96875 0 Z M 11.988281 3.640625 C 14.316406 3.644531 16.1875 5.554688 16.175781 7.910156 C 16.164062 10.214844 14.261719 12.078125 11.9375 12.070312 C 9.632812 12.0625 7.742188 10.152344 7.757812 7.847656 C 7.769531 5.515625 9.660156 3.632812 11.988281 3.640625 Z M 16.707031 13.726562 C 16.191406 14.257812 15.574219 14.640625 14.882812 14.90625 C 14.230469 15.160156 13.519531 15.289062 12.8125 15.371094 C 12.917969 15.488281 12.96875 15.546875 13.035156 15.613281 C 13.996094 16.574219 14.957031 17.535156 15.914062 18.503906 C 16.238281 18.832031 16.308594 19.238281 16.128906 19.621094 C 15.933594 20.042969 15.492188 20.316406 15.0625 20.289062 C 14.789062 20.269531 14.578125 20.132812 14.386719 19.941406 C 13.664062 19.214844 12.925781 18.5 12.21875 17.757812 C 12.011719 17.542969 11.910156 17.582031 11.730469 17.769531 C 11 18.519531 10.261719 19.257812 9.515625 19.992188 C 9.183594 20.320312 8.785156 20.382812 8.398438 20.191406 C 7.984375 19.992188 7.722656 19.570312 7.742188 19.148438 C 7.757812 18.863281 7.898438 18.644531 8.09375 18.449219 C 9.042969 17.5 9.988281 16.550781 10.9375 15.601562 C 11 15.539062 11.058594 15.472656 11.148438 15.375 C 9.859375 15.238281 8.695312 14.921875 7.695312 14.140625 C 7.574219 14.042969 7.445312 13.949219 7.332031 13.839844 C 6.894531 13.421875 6.851562 12.941406 7.195312 12.449219 C 7.492188 12.023438 7.988281 11.910156 8.503906 12.15625 C 8.605469 12.203125 8.699219 12.261719 8.789062 12.324219 C 10.648438 13.601562 13.199219 13.636719 15.066406 12.378906 C 15.25 12.238281 15.449219 12.125 15.675781 12.066406 C 16.121094 11.949219 16.535156 12.113281 16.773438 12.503906 C 17.046875 12.949219 17.042969 13.382812 16.707031 13.726562 Z M 16.707031 13.726562 "/>
</g>
</svg>
