<?xml version="1.0" encoding="UTF-8"?>
<svg xmlns="http://www.w3.org/2000/svg" xmlns:xlink="http://www.w3.org/1999/xlink" width="24px" height="24px" viewBox="0 0 24 24" version="1.1">
<g id="surface1">
<path style=" stroke:none;fill-rule:nonzero;fill:rgb(0%,0%,0%);fill-opacity:1;" d="M 22.925781 17.609375 L 19.414062 14.097656 C 19.921875 12.875 20.183594 11.5625 20.183594 10.226562 C 20.183594 4.660156 15.65625 0.132812 10.09375 0.132812 C 4.527344 0.132812 0 4.660156 0 10.226562 C 0 15.792969 4.527344 20.320312 10.09375 20.320312 C 11.574219 20.320312 13.015625 20 14.335938 19.386719 L 17.742188 22.792969 C 18.433594 23.484375 19.355469 23.867188 20.335938 23.867188 C 21.3125 23.867188 22.234375 23.484375 22.925781 22.792969 C 23.617188 22.101562 24 21.179688 24 20.199219 C 24 19.222656 23.617188 18.300781 22.925781 17.609375 Z M 21.472656 21.335938 C 21.15625 21.652344 20.746094 21.808594 20.335938 21.808594 C 19.921875 21.808594 19.511719 21.652344 19.199219 21.335938 L 14.683594 16.820312 C 13.378906 17.726562 11.800781 18.261719 10.09375 18.261719 C 5.65625 18.261719 2.058594 14.664062 2.058594 10.226562 C 2.058594 5.789062 5.65625 2.191406 10.09375 2.191406 C 14.53125 2.191406 18.128906 5.789062 18.128906 10.226562 C 18.128906 11.792969 17.675781 13.257812 16.898438 14.492188 L 21.472656 19.066406 C 22.097656 19.691406 22.097656 20.710938 21.472656 21.335938 Z M 21.472656 21.335938 "/>
<path style=" stroke:none;fill-rule:nonzero;fill:rgb(0%,0%,0%);fill-opacity:1;" d="M 10.09375 4.480469 C 6.925781 4.480469 4.347656 7.058594 4.347656 10.226562 C 4.347656 13.394531 6.925781 15.972656 10.09375 15.972656 C 13.261719 15.972656 15.839844 13.394531 15.839844 10.226562 C 15.839844 7.058594 13.261719 4.480469 10.09375 4.480469 Z M 10.09375 13.914062 C 8.058594 13.914062 6.40625 12.261719 6.40625 10.226562 C 6.40625 8.191406 8.058594 6.539062 10.09375 6.539062 C 12.125 6.539062 13.78125 8.191406 13.78125 10.226562 C 13.78125 12.261719 12.125 13.914062 10.09375 13.914062 Z M 10.09375 13.914062 "/>
</g>
</svg>
