<?xml version="1.0" encoding="UTF-8"?>
<svg xmlns="http://www.w3.org/2000/svg" xmlns:xlink="http://www.w3.org/1999/xlink" width="24px" height="24px" viewBox="0 0 24 24" version="1.1">
<g id="surface1">
<path style=" stroke:none;fill-rule:nonzero;fill:rgb(0%,0%,0%);fill-opacity:1;" d="M 12 0 C 5.371094 0 0 5.371094 0 12 C 0 18.628906 5.371094 24 12 24 C 18.628906 24 24 18.628906 24 12 C 24 5.371094 18.628906 0 12 0 Z M 17.894531 8.222656 L 15.925781 17.5 C 15.777344 18.160156 15.386719 18.320312 14.839844 18.007812 L 11.839844 15.800781 L 10.394531 17.191406 C 10.253906 17.371094 10.035156 17.488281 9.792969 17.488281 C 9.792969 17.488281 9.789062 17.488281 9.789062 17.488281 L 10.003906 14.433594 L 15.5625 9.410156 C 15.800781 9.199219 15.507812 9.078125 15.1875 9.289062 L 8.320312 13.617188 L 5.359375 12.691406 C 4.71875 12.488281 4.703125 12.054688 5.496094 11.738281 L 17.0625 7.28125 C 17.597656 7.085938 18.066406 7.410156 17.894531 8.222656 Z M 17.894531 8.222656 "/>
</g>
</svg>
