<?xml version="1.0" standalone="no"?>
<!DOCTYPE svg PUBLIC "-//W3C//DTD SVG 20010904//EN"
 "http://www.w3.org/TR/2001/REC-SVG-20010904/DTD/svg10.dtd">
<svg version="1.0" xmlns="http://www.w3.org/2000/svg"
 width="512.000000pt" height="512.000000pt" viewBox="0 0 512.000000 512.000000"
 preserveAspectRatio="xMidYMid meet">

<g transform="translate(0.000000,512.000000) scale(0.100000,-0.100000)"
fill="#000000" stroke="none">
<path d="M3294 2989 c-347 -390 -422 -469 -439 -465 -11 3 -37 9 -58 12 -27 5
-38 12 -41 28 -3 11 -14 154 -26 316 -11 162 -23 304 -25 316 -6 27 -141 196
-166 208 -14 7 -26 4 -44 -10 -14 -10 -120 -167 -235 -349 -116 -181 -214
-333 -218 -337 -4 -4 -207 38 -452 93 -412 93 -451 100 -525 96 -90 -5 -146
-27 -205 -81 -33 -31 -42 -33 -177 -50 -168 -20 -346 -67 -497 -130 -125 -53
-146 -68 -146 -107 0 -47 148 -168 297 -243 64 -33 67 -35 43 -44 -14 -5 -72
-26 -130 -47 -58 -21 -111 -42 -117 -48 -17 -12 -17 -62 0 -75 22 -18 322
-112 358 -112 19 0 125 18 235 40 l202 39 163 -55 c158 -53 447 -138 558 -164
l53 -13 -31 -24 c-34 -26 -39 -49 -18 -77 12 -16 46 -21 258 -38 l244 -19 51
21 c45 18 58 19 120 10 38 -6 193 -15 344 -20 239 -9 282 -8 329 6 69 20 142
87 179 165 l28 59 16 -34 c97 -201 371 -207 466 -10 14 30 17 32 61 28 348
-31 424 -34 443 -18 25 23 23 61 -4 78 -13 7 -61 16 -108 20 -47 3 -144 11
-216 18 l-132 11 -4 76 c-3 45 -13 95 -24 121 -17 39 -19 51 -9 85 l12 40 49
-2 c27 -2 123 -7 214 -13 91 -5 284 -17 430 -25 146 -9 285 -18 310 -20 25 -2
113 -7 196 -10 l152 -7 17 26 c29 44 6 63 -186 149 l-174 77 -475 36 c-261 20
-477 38 -479 40 -2 2 26 153 63 336 36 183 66 343 66 355 0 21 -75 157 -108
196 -8 9 -27 17 -43 17 -23 0 -86 -66 -445 -471z m467 287 l23 -44 -87 -434
c-49 -238 -91 -440 -95 -449 -6 -15 -19 -13 -122 17 -63 18 -197 54 -298 80
-168 44 -181 49 -170 65 24 32 713 808 719 808 3 1 17 -19 30 -43z m-1158
-150 c6 -49 44 -565 46 -616 0 -14 5 -72 11 -128 7 -57 9 -106 6 -109 -3 -3
-135 41 -293 97 -158 56 -300 107 -314 112 l-27 9 190 297 c105 163 215 337
247 385 l56 89 36 -42 c28 -33 38 -54 42 -94z m-1479 -335 c10 -15 -12 -61
-26 -56 -7 2 -40 9 -72 15 -51 11 -57 14 -40 23 16 9 61 19 121 26 6 0 14 -3
17 -8z m473 -101 c196 -44 360 -80 365 -80 16 0 8 -21 -27 -73 -39 -58 -44
-86 -17 -109 9 -8 176 -72 371 -142 195 -69 357 -128 359 -131 3 -3 0 -28 -6
-56 -23 -100 -9 -204 41 -294 l26 -45 -57 1 c-31 1 -88 4 -127 8 l-70 6 72 32
c57 25 74 37 79 57 12 48 -21 69 -179 112 -52 14 -135 27 -192 31 l-100 6
-135 -68 -135 -68 -185 46 c-231 58 -533 149 -523 158 5 3 186 41 403 83 217
42 407 81 422 87 30 12 42 43 27 72 -23 41 -324 157 -509 195 -65 14 -129 20
-205 19 l-110 -2 -313 -114 -313 -114 -72 28 c-133 51 -321 170 -294 187 59
38 297 109 447 133 142 23 210 22 362 -9 172 -35 183 -31 213 61 11 35 21 63
23 63 1 0 163 -36 359 -80z m2383 -260 c74 -6 162 -12 195 -15 33 -3 159 -12
280 -21 191 -13 285 -27 272 -40 -2 -2 -111 3 -243 11 -131 8 -318 19 -414 25
-324 18 -340 20 -340 42 0 17 5 18 58 13 31 -3 118 -10 192 -15z m-2505 -16
c82 -16 291 -80 299 -92 2 -4 -59 -20 -137 -35 -78 -15 -368 -73 -644 -127
l-501 -99 -78 26 -77 26 424 154 c233 85 444 158 469 162 56 9 141 4 245 -15z
m1408 -5 c135 -31 411 -101 416 -105 2 -2 -11 -20 -30 -41 -19 -21 -43 -57
-53 -81 l-20 -43 -23 50 c-33 69 -111 137 -180 157 -63 18 -113 14 -180 -16
l-43 -19 0 60 c0 35 4 59 11 59 6 0 52 -9 102 -21z m100 -170 c72 -37 127
-136 127 -228 0 -181 -135 -300 -261 -229 -70 39 -109 120 -109 227 0 99 48
187 125 229 26 15 90 15 118 1z m548 -12 c134 -90 126 -334 -14 -405 -44 -23
-51 -24 -90 -12 -147 44 -184 287 -60 401 34 32 47 37 94 38 22 1 49 -8 70
-22z m-1189 -338 c32 -6 56 -15 53 -19 -2 -3 -35 -19 -72 -35 -37 -15 -93 -39
-122 -52 -52 -23 -62 -24 -173 -17 -65 3 -118 9 -118 13 0 3 58 34 128 68 122
60 130 62 187 58 33 -3 86 -10 117 -16z"/>
</g>
</svg>
