<?xml version="1.0" encoding="UTF-8"?>
<svg xmlns="http://www.w3.org/2000/svg" xmlns:xlink="http://www.w3.org/1999/xlink" width="24px" height="24px" viewBox="0 0 24 24" version="1.1">
<g id="surface1">
<path style=" stroke:none;fill-rule:nonzero;fill:rgb(0%,0%,0%);fill-opacity:1;" d="M 12 0 C 5.371094 0 0 5.371094 0 12 C 0 18.625 5.371094 24 12 24 C 18.628906 24 24 18.625 24 12 C 24 5.371094 18.628906 0 12 0 Z M 12 4.214844 L 19.101562 8.644531 L 4.898438 8.644531 Z M 19.191406 15.714844 L 19.1875 15.714844 C 19.1875 16.425781 18.613281 17 17.902344 17 L 6.097656 17 C 5.386719 17 4.8125 16.425781 4.8125 15.714844 L 4.8125 8.925781 C 4.8125 8.847656 4.820312 8.777344 4.832031 8.703125 L 11.617188 12.933594 C 11.625 12.941406 11.632812 12.945312 11.640625 12.949219 C 11.652344 12.953125 11.660156 12.957031 11.667969 12.964844 C 11.71875 12.988281 11.765625 13.007812 11.816406 13.019531 C 11.820312 13.023438 11.828125 13.023438 11.832031 13.023438 C 11.886719 13.039062 11.945312 13.046875 12 13.046875 C 12.058594 13.046875 12.113281 13.039062 12.167969 13.023438 C 12.171875 13.023438 12.179688 13.023438 12.183594 13.019531 C 12.234375 13.007812 12.285156 12.988281 12.332031 12.964844 C 12.339844 12.957031 12.351562 12.953125 12.359375 12.949219 C 12.367188 12.945312 12.375 12.941406 12.382812 12.933594 L 19.167969 8.703125 C 19.183594 8.777344 19.191406 8.847656 19.191406 8.925781 Z M 19.191406 15.714844 "/>
</g>
</svg>
