<?xml version="1.0" encoding="UTF-8"?>
<svg xmlns="http://www.w3.org/2000/svg" xmlns:xlink="http://www.w3.org/1999/xlink" width="50px" height="50px" viewBox="0 0 50 50" version="1.1">
<g id="surface1">
<path style=" stroke:none;fill-rule:nonzero;fill:rgb(0%,0%,0%);fill-opacity:1;" d="M 25 0 C 11.214844 0 0 11.214844 0 25 C 0 38.785156 11.214844 50 25 50 C 38.785156 50 50 38.785156 50 25 C 50 11.214844 38.785156 0 25 0 Z M 35.714844 36.605469 L 14.285156 36.605469 C 13.300781 36.605469 12.5 35.808594 12.5 34.820312 C 12.5 33.835938 13.300781 33.035156 14.285156 33.035156 L 35.714844 33.035156 C 36.699219 33.035156 37.5 33.835938 37.5 34.820312 C 37.5 35.808594 36.699219 36.605469 35.714844 36.605469 Z M 35.714844 26.785156 L 14.285156 26.785156 C 13.300781 26.785156 12.5 25.984375 12.5 25 C 12.5 24.015625 13.300781 23.214844 14.285156 23.214844 L 35.714844 23.214844 C 36.699219 23.214844 37.5 24.015625 37.5 25 C 37.5 25.984375 36.699219 26.785156 35.714844 26.785156 Z M 35.714844 16.964844 L 14.285156 16.964844 C 13.300781 16.964844 12.5 16.164062 12.5 15.179688 C 12.5 14.191406 13.300781 13.394531 14.285156 13.394531 L 35.714844 13.394531 C 36.699219 13.394531 37.5 14.191406 37.5 15.179688 C 37.5 16.164062 36.699219 16.964844 35.714844 16.964844 Z M 35.714844 16.964844 "/>
</g>
</svg>
