<?xml version="1.0" encoding="UTF-8"?>
<svg xmlns="http://www.w3.org/2000/svg" xmlns:xlink="http://www.w3.org/1999/xlink" width="40px" height="40px" viewBox="0 0 40 40" version="1.1">
<g id="surface1">
<path style=" stroke:none;fill-rule:nonzero;fill:rgb(0%,0%,0%);fill-opacity:1;" d="M 28.148438 14.304688 L 24.671875 15.039062 L 27.050781 17.675781 L 26.675781 21.207031 L 29.921875 19.757812 L 33.164062 21.207031 L 32.789062 17.675781 L 35.167969 15.039062 L 31.691406 14.304688 L 29.921875 11.222656 Z M 28.148438 14.304688 "/>
<path style=" stroke:none;fill-rule:nonzero;fill:rgb(0%,0%,0%);fill-opacity:1;" d="M 38.679688 28.632812 L 36.402344 28.148438 L 35.242188 26.132812 L 34.082031 28.148438 L 31.804688 28.632812 L 33.363281 30.359375 L 33.117188 32.671875 L 35.242188 31.722656 L 37.367188 32.671875 L 37.121094 30.359375 Z M 38.679688 28.632812 "/>
<path style=" stroke:none;fill-rule:nonzero;fill:rgb(0%,0%,0%);fill-opacity:1;" d="M 19.164062 20 C 19.164062 12.160156 23.675781 5.375 30.242188 2.097656 C 27.554688 0.757812 24.527344 0 21.320312 0 C 10.273438 0 1.320312 8.953125 1.320312 20 C 1.320312 31.046875 10.273438 40 21.320312 40 C 24.527344 40 27.554688 39.242188 30.242188 37.902344 C 23.675781 34.625 19.164062 27.839844 19.164062 20 Z M 19.164062 20 "/>
</g>
</svg>
