<?xml version="1.0" encoding="UTF-8" standalone="no"?>
<!-- Created with Inkscape (http://www.inkscape.org/) -->

<svg
   xmlns:dc="http://purl.org/dc/elements/1.1/"
   xmlns:cc="http://creativecommons.org/ns#"
   xmlns:rdf="http://www.w3.org/1999/02/22-rdf-syntax-ns#"
   xmlns:svg="http://www.w3.org/2000/svg"
   xmlns="http://www.w3.org/2000/svg"
   xmlns:xlink="http://www.w3.org/1999/xlink"
   version="1.1"
   width="300"
   height="286"
   viewBox="0 0 84.666668 80.715556"
   id="svg2"
   xml:space="preserve"
   style="fill-rule:evenodd"><metadata
   id="metadata47"><rdf:RDF><cc:Work
       rdf:about=""><dc:format>image/svg+xml</dc:format><dc:type
         rdf:resource="http://purl.org/dc/dcmitype/StillImage" /><dc:title></dc:title></cc:Work></rdf:RDF></metadata>
 <defs
   id="defs4"><linearGradient
     id="linearGradient4149"><stop
       id="stop4151"
       style="stop-color:#ffffff;stop-opacity:1"
       offset="0" /><stop
       id="stop4153"
       style="stop-color:#4d4d4d;stop-opacity:1"
       offset="1" /></linearGradient><style
     type="text/css"
     id="style6" /><style
     type="text/css"
     id="style3049" /><style
     type="text/css"
     id="style3150" /><style
     type="text/css"
     id="style6-4" /><radialGradient
     cx="149.28136"
     cy="103.8586"
     r="19.577866"
     fx="149.28136"
     fy="103.8586"
     id="radialGradient4155"
     xlink:href="#linearGradient4149"
     gradientUnits="userSpaceOnUse"
     gradientTransform="matrix(1.1839109,0,0,1.1953533,-133.3285,-85.369914)" /><radialGradient
     cx="149.28136"
     cy="103.8586"
     r="19.577866"
     fx="149.28136"
     fy="103.8586"
     id="radialGradient4996"
     xlink:href="#linearGradient4490"
     gradientUnits="userSpaceOnUse"
     gradientTransform="matrix(1.1839109,0,0,1.1953533,-133.3285,-85.369914)" /><style
     type="text/css"
     id="style6-40" /><style
     type="text/css"
     id="style3049-5" /><style
     type="text/css"
     id="style3150-1" /><style
     type="text/css"
     id="style6-4-8" /><style
     type="text/css"
     id="style6-17" /><style
     type="text/css"
     id="style3150-2" /><style
     type="text/css"
     id="style3049-54" /><style
     type="text/css"
     id="style6-82" /><style
     type="text/css"
     id="style3010-4" /><style
     type="text/css"
     id="style6-09" /><style
     type="text/css"
     id="style3072" /><style
     type="text/css"
     id="style6-4-88" /><style
     type="text/css"
     id="style6-8" /><style
     type="text/css"
     id="style6-0" /><style
     type="text/css"
     id="style3010-9" /><style
     type="text/css"
     id="style3010" /><style
     type="text/css"
     id="style6-45" /><style
     type="text/css"
     id="style3010-2" /><style
     type="text/css"
     id="style6-1" /><style
     type="text/css"
     id="style6-4-5" /><style
     type="text/css"
     id="style6-11" /><style
     type="text/css"
     id="style3795" /><style
     type="text/css"
     id="style4213" /><style
     type="text/css"
     id="style4382" /><style
     type="text/css"
     id="style3777" /><style
     type="text/css"
     id="style6-409" /><linearGradient
     id="linearGradient4490"><stop
       id="stop4492"
       style="stop-color:#ffffff;stop-opacity:1"
       offset="0" /><stop
       id="stop4494"
       style="stop-color:#333333;stop-opacity:1"
       offset="1" /></linearGradient><radialGradient
     cx="149.28136"
     cy="103.8586"
     r="19.577866"
     fx="149.28136"
     fy="103.8586"
     id="radialGradient5257"
     xlink:href="#linearGradient4490"
     gradientUnits="userSpaceOnUse"
     gradientTransform="matrix(1.1839109,0,0,1.1953533,-237.81852,-117.50679)" /><style
     type="text/css"
     id="style3010-44" /><radialGradient
     cx="149.28136"
     cy="103.8586"
     r="19.577866"
     fx="149.28136"
     fy="103.8586"
     id="radialGradient5381"
     xlink:href="#linearGradient4490"
     gradientUnits="userSpaceOnUse"
     gradientTransform="matrix(1.1839109,0,0,1.1953533,-237.81852,-117.50679)" /></defs>
 
<g
   transform="matrix(0.06047619,0,0,0.06047619,12.7,31.326667)"
   id="g5298"><path
     d="m 0,20 0,100 60,0 0,-20.000001 -40,0 L 20,20 z"
     id="rect3023"
     style="fill:#9000cc;fill-opacity:1;stroke:none" /><path
     d="m 80,20 0,100 60,0 0,-20.000001 -40,0 0,-20 40,0 L 140,60 l -40,0 0,-20 40,0 0,-20 z"
     id="rect3004"
     style="fill:#9000cc;fill-opacity:1;stroke:none" /><path
     d="m 210,40.000003 0,20 20,0 c 5.52285,0 10,4.47715 10,10 0,5.52285 -4.47715,9.999995 -10,9.999995 l -20,0 0,20 20,0 c 16.56854,0 30,-13.43146 30,-29.999995 0,-16.56854 -13.43146,-30 -30,-30 z m 20,-40 c -38.65993,0 -70,31.34007 -70,70 C 160,108.65993 191.34007,140 230,140 c 38.65993,0 70,-31.34007 70,-69.999997 0,-38.65993 -31.34007,-70 -70,-70 z m 0,20 c 27.61424,0 50,22.38576 50,50 C 280,97.614236 257.61424,120 230,120 c -27.61424,0 -50,-22.385764 -50,-49.999997 0,-27.61424 22.38576,-50 50,-50 z"
     id="path3029"
     style="fill:#9000cc;fill-opacity:1;stroke:none" /><path
     d="m 320,20 0,100 20,0 0,-62.78125 40,62.78125 20,0 0,-100 -20,0 0,62.78125 L 340,20 z"
     id="rect3051"
     style="fill:#ff0000;fill-opacity:1;stroke:none" /><rect
     width="20"
     height="100"
     x="420"
     y="20"
     id="rect3002"
     style="fill:#9000cc;fill-opacity:1;stroke:none" /><path
     d="m 460,20 0,100 50,0 c 16.56854,0 30,-13.43146 30,-30 l 0,-40 C 540,33.43146 526.56854,20 510,20 z m 20,20 30,0 c 5.52285,0 10,4.47715 10,10 l 0,40 c 0,5.522847 -4.47715,10 -10,10 l -30,0 z"
     id="path3053"
     style="fill:#9000cc;fill-opacity:1;stroke:none" /><path
     d="m 660,20 -20,20 30,0 c 5.52285,0 10,4.47715 10,10 0,5.52285 -4.47715,10 -10,10 -16.56854,0 -30,13.43146 -30,30 l 0,30 60,0 0,-20 -40,0 0,-10 c 0,-5.52285 4.47715,-10 10,-10 16.56854,0 30,-13.43146 30,-30 0,-16.56853 -13.43146,-30 -30,-30 l -10,0 z"
     id="path3071"
     style="fill:#9000cc;fill-opacity:1;stroke:none" /><path
     d="m 790,3e-6 c -38.65993,0 -70,31.34007 -70,70 C 720,108.65993 751.34007,140 790,140 c 38.65993,0 70,-31.34007 70,-69.999997 0,-38.65993 -31.34007,-70 -70,-70 z m 0,20 c 27.61424,0 50,22.38576 50,50 C 840,97.614238 817.61424,120 790,120 c -27.61424,0 -50,-22.385762 -50,-49.999997 0,-27.61424 22.38576,-50 50,-50 z"
     id="path3041"
     style="fill:#9000cc;fill-opacity:1;stroke:none" /><path
     d="m 880,40 0,80 20,0 0,-100 z"
     id="rect3068"
     style="fill:#9000cc;fill-opacity:1;stroke:none" /><g
     transform="matrix(2,0,0,2,351.0382,-1.821)"
     id="g3021"
     style="fill-rule:evenodd"><g
       id="Слой_x0020_1"><metadata
         id="CorelCorpID_0Corel-Layer" /><path
         d="m 299.481,50.9104 c -2.761,0 -5,-2.239 -5,-4.9999 0,-2.761 2.239,-5.0001 5,-5.0001 2.7609,0 5,2.2391 5,5.0001 0,2.7609 -2.2391,4.9999 -5,4.9999 z m 9.9999,-29.9999 -9.9999,0 c -2.7609,0 -5,2.239 -5,5 l -10e-5,5.8554 c 1.5642,-0.5532 3.2467,-0.8554 5.0001,-0.8554 8.2828,0 14.9999,6.7171 14.9999,15.0001 0,8.2829 -6.717,14.9999 -14.9999,14.9999 -8.2829,0 -15.0001,-6.717 -15.0001,-14.9999 l 0,-20.0001 c 10e-5,-8.283 6.7172,-15 15.0001,-15 l 9.9999,10 z"
         id="path3014"
         style="fill:#9900cc" /></g></g></g><text
   x="-255.18561"
   y="-158.60425"
   transform="matrix(0,-1.1832155,0.84515459,0,0,0)"
   id="text362"
   style="font-size:3.57782125px;fill-rule:evenodd"><tspan
     x="-255.18561 -250.79349 -246.79919 -242.53468 -236.92645 -232.88712"
     y="-158.60425"
     id="tspan364"
     style="font-size:7.50665665px;font-variant:normal;font-weight:normal;writing-mode:lr-tb;fill:#ffffff;fill-opacity:1;fill-rule:nonzero;stroke:none;font-family:Impact;-inkscape-font-specification:Impact" /></text>
<text
   x="-227.07922"
   y="-158.60425"
   transform="matrix(0,-1.1832155,0.84515459,0,0,0)"
   id="text366"
   style="font-size:3.57782125px;fill-rule:evenodd"><tspan
     x="-227.07922 -223.08417 -219.73471 -215.23671"
     y="-158.60425"
     id="tspan368"
     style="font-size:7.50665665px;font-variant:normal;font-weight:normal;writing-mode:lr-tb;fill:#ffffff;fill-opacity:1;fill-rule:nonzero;stroke:none;font-family:Impact;-inkscape-font-specification:Impact" /></text>
<text
   x="-25.350243"
   y="241.31709"
   id="text524"
   style="font-size:4.23333359px;fill-rule:evenodd"><tspan
     x="-25.350243"
     y="241.31709"
     id="tspan526"
     style="font-size:6.52554274px;font-variant:normal;font-weight:normal;writing-mode:lr-tb;fill:#ffffff;fill-opacity:1;fill-rule:nonzero;stroke:none;font-family:Wingdings3;-inkscape-font-specification:Wingdings3" /></text>
<text
   x="-33.481453"
   y="252.67339"
   id="text746"
   style="font-size:4.23333359px;fill-rule:evenodd"><tspan
     x="-33.481453 -29.859772 -26.525223 -23.118889 -19.784332 -16.554199 -13.076081 -9.7872019"
     y="252.67339"
     id="tspan748"
     style="font-size:6.52554274px;font-variant:normal;font-weight:normal;writing-mode:lr-tb;fill:#231f20;fill-opacity:1;fill-rule:nonzero;stroke:none;font-family:Impact;-inkscape-font-specification:Impact" /></text>
<text
   x="-5.2982945"
   y="252.67339"
   id="text750"
   style="font-size:4.23333359px;fill-rule:evenodd"><tspan
     x="-5.2982945 -2.0681465 0.73783809 4.1246028 7.4134669 12.288054"
     y="252.67339"
     id="tspan752"
     style="font-size:6.52554274px;font-variant:normal;font-weight:normal;writing-mode:lr-tb;fill:#231f20;fill-opacity:1;fill-rule:nonzero;stroke:none;font-family:Impact;-inkscape-font-specification:Impact" /></text>
<text
   x="-124.64877"
   y="100.53263"
   transform="scale(1.044074,0.95778652)"
   id="text820"
   style="font-size:4.0546298px;fill-rule:evenodd"><tspan
     x="-124.64877 -114.62019 -105.51299 -91.040115"
     y="100.53263"
     id="tspan822"
     style="font-size:18.06624794px;font-variant:normal;font-weight:normal;writing-mode:lr-tb;fill:#ed1b2e;fill-opacity:1;fill-rule:nonzero;stroke:none;font-family:Impact;-inkscape-font-specification:Impact" /></text>
<text
   x="-77.763229"
   y="100.53263"
   transform="scale(1.044074,0.95778652)"
   id="text824"
   style="font-size:4.0546298px;fill-rule:evenodd"><tspan
     x="-77.763229 -67.629875 -58.39983 -50.633152 -41.330837 -31.233629 -22.003565"
     y="100.53263"
     id="tspan826"
     style="font-size:18.06624794px;font-variant:normal;font-weight:normal;writing-mode:lr-tb;fill:#ed1b2e;fill-opacity:1;fill-rule:nonzero;stroke:none;font-family:Impact;-inkscape-font-specification:Impact" /><tspan
     x="-89.62011 -79.994408"
     y="118.32245"
     id="tspan828"
     style="font-size:18.06624794px;font-variant:normal;font-weight:normal;writing-mode:lr-tb;fill:#ed1b2e;fill-opacity:1;fill-rule:nonzero;stroke:none;font-family:Impact;-inkscape-font-specification:Impact" /></text>
<text
   x="-67.566643"
   y="118.32245"
   transform="scale(1.044074,0.95778652)"
   id="text830"
   style="font-size:4.0546298px;fill-rule:evenodd"><tspan
     x="-67.566643 -55.229214 -46.125622 -32.631931 -24.540064"
     y="118.32245"
     id="tspan832"
     style="font-size:18.06624794px;font-variant:normal;font-weight:normal;writing-mode:lr-tb;fill:#ed1b2e;fill-opacity:1;fill-rule:nonzero;stroke:none;font-family:Impact;-inkscape-font-specification:Impact" /></text>
<text
   x="-2.5953376"
   y="142.49185"
   id="text838"
   style="font-size:4.23333359px;fill-rule:evenodd"><tspan
     x="-2.5953376 -0.71627873"
     y="142.49185"
     id="tspan840"
     style="font-size:3.44402838px;font-variant:normal;font-weight:normal;writing-mode:lr-tb;fill:#231f20;fill-opacity:1;fill-rule:nonzero;stroke:none;font-family:Impact;-inkscape-font-specification:Impact" /></text>
<text
   x="1.3752892"
   y="142.49185"
   id="text842"
   style="font-size:4.23333359px;fill-rule:evenodd"><tspan
     x="1.3752892 3.3001549 5.1354671 6.9708095 8.7303457 10.500243 12.235686 14.139892 16.064758"
     y="142.49185"
     id="tspan844"
     style="font-size:3.44402838px;font-variant:normal;font-weight:normal;writing-mode:lr-tb;fill:#231f20;fill-opacity:1;fill-rule:nonzero;stroke:none;font-family:Impact;-inkscape-font-specification:Impact" /></text>
<text
   x="-4.8732152"
   y="146.11739"
   id="text850"
   style="font-size:4.23333359px;fill-rule:evenodd"><tspan
     x="-4.8732152"
     y="146.11739"
     id="tspan852"
     style="font-size:3.44402838px;font-variant:normal;font-weight:normal;writing-mode:lr-tb;fill:#231f20;fill-opacity:1;fill-rule:nonzero;stroke:none;font-family:Impact;-inkscape-font-specification:Impact" /></text>
<text
   x="-2.5054481"
   y="146.11739"
   id="text854"
   style="font-size:4.23333359px;fill-rule:evenodd"><tspan
     x="-2.5054481 -0.67356938 1.0859826 2.8730919 4.5775447 6.4094234 8.1689749 9.9285269 11.409118 13.333983 15.103866 16.939194 18.698746 21.050674"
     y="146.11739"
     id="tspan856"
     style="font-size:3.44402838px;font-variant:normal;font-weight:normal;writing-mode:lr-tb;fill:#231f20;fill-opacity:1;fill-rule:nonzero;stroke:none;font-family:Impact;-inkscape-font-specification:Impact" /></text>
<text
   x="-0.82647771"
   y="149.74257"
   id="text858"
   style="font-size:4.23333359px;fill-rule:evenodd"><tspan
     x="-0.82647771 0.94341975 2.7029564 4.4625239 6.2496181 7.7922053 10.364547 12.124099 13.959426 15.884292"
     y="149.74257"
     id="tspan860"
     style="font-size:3.44402838px;font-variant:normal;font-weight:normal;writing-mode:lr-tb;fill:#231f20;fill-opacity:1;fill-rule:nonzero;stroke:none;font-family:Impact;-inkscape-font-specification:Impact" /></text>
<text
   x="-201.69008"
   y="-165.65352"
   transform="matrix(0,-1.1832155,0.84515459,0,0,0)"
   id="text362-3"
   style="font-size:3.57782125px;fill:#000000;fill-rule:evenodd"><tspan
     x="-201.69008 -197.29793 -193.30363 -189.03911 -183.43088 -179.39156"
     y="-165.65352"
     id="tspan364-4"
     style="font-size:7.50665665px;font-variant:normal;font-weight:normal;writing-mode:lr-tb;fill:#000000;fill-opacity:1;fill-rule:nonzero;stroke:none;font-family:Impact;-inkscape-font-specification:Impact" /></text>
<text
   x="-173.58365"
   y="-165.65352"
   transform="matrix(0,-1.1832155,0.84515459,0,0,0)"
   id="text366-4"
   style="font-size:3.57782125px;fill:#000000;fill-rule:evenodd"><tspan
     x="-173.58365 -169.58861 -166.23914 -161.74115"
     y="-165.65352"
     id="tspan368-6"
     style="font-size:7.50665665px;font-variant:normal;font-weight:normal;writing-mode:lr-tb;fill:#000000;fill-opacity:1;fill-rule:nonzero;stroke:none;font-family:Impact;-inkscape-font-specification:Impact" /></text>
<text
   x="-31.307976"
   y="178.02031"
   id="text524-0"
   style="font-size:4.23333359px;fill:#000000;fill-rule:evenodd"><tspan
     x="-31.307976"
     y="178.02031"
     id="tspan526-6"
     style="font-size:6.52554274px;font-variant:normal;font-weight:normal;writing-mode:lr-tb;fill:#000000;fill-opacity:1;fill-rule:nonzero;stroke:none;font-family:Wingdings3;-inkscape-font-specification:Wingdings3" /></text>
<text
   x="-39.439186"
   y="189.37662"
   id="text746-6"
   style="font-size:4.23333359px;fill:#000000;fill-rule:evenodd"><tspan
     x="-39.439186 -35.817513 -32.482956 -29.076622 -25.742073 -22.511932 -19.033806 -15.744935"
     y="189.37662"
     id="tspan748-1"
     style="font-size:6.52554274px;font-variant:normal;font-weight:normal;writing-mode:lr-tb;fill:#000000;fill-opacity:1;fill-rule:nonzero;stroke:none;font-family:Impact;-inkscape-font-specification:Impact" /></text>
<text
   x="-11.256013"
   y="189.37662"
   id="text750-8"
   style="font-size:4.23333359px;fill:#000000;fill-rule:evenodd"><tspan
     x="-11.256013 -8.0258646 -5.2198796 -1.8331306 1.4557488 6.3303218"
     y="189.37662"
     id="tspan752-4"
     style="font-size:6.52554274px;font-variant:normal;font-weight:normal;writing-mode:lr-tb;fill:#000000;fill-opacity:1;fill-rule:nonzero;stroke:none;font-family:Impact;-inkscape-font-specification:Impact" /></text>
<text
   x="-130.355"
   y="34.446106"
   transform="scale(1.044074,0.95778652)"
   id="text820-9"
   style="font-size:4.0546298px;fill:#000000;fill-rule:evenodd"><tspan
     x="-130.355 -120.32642 -111.21922 -96.746353"
     y="34.446106"
     id="tspan822-6"
     style="font-size:18.06624794px;font-variant:normal;font-weight:normal;writing-mode:lr-tb;fill:#000000;fill-opacity:1;fill-rule:nonzero;stroke:none;font-family:Impact;-inkscape-font-specification:Impact" /></text>
<text
   x="-83.469467"
   y="34.446106"
   transform="scale(1.044074,0.95778652)"
   id="text824-3"
   style="font-size:4.0546298px;fill:#000000;fill-rule:evenodd"><tspan
     x="-83.469467 -73.336105 -64.106056 -56.339382 -47.037067 -36.939846 -27.709795"
     y="34.446106"
     id="tspan826-7"
     style="font-size:18.06624794px;font-variant:normal;font-weight:normal;writing-mode:lr-tb;fill:#000000;fill-opacity:1;fill-rule:nonzero;stroke:none;font-family:Impact;-inkscape-font-specification:Impact" /><tspan
     x="-95.326347 -85.700645"
     y="52.235947"
     id="tspan828-8"
     style="font-size:18.06624794px;font-variant:normal;font-weight:normal;writing-mode:lr-tb;fill:#000000;fill-opacity:1;fill-rule:nonzero;stroke:none;font-family:Impact;-inkscape-font-specification:Impact" /></text>
<text
   x="-73.272873"
   y="52.235947"
   transform="scale(1.044074,0.95778652)"
   id="text830-8"
   style="font-size:4.0546298px;fill:#000000;fill-rule:evenodd"><tspan
     x="-73.272873 -60.935436 -51.831852 -38.338177 -30.246294"
     y="52.235947"
     id="tspan832-2"
     style="font-size:18.06624794px;font-variant:normal;font-weight:normal;writing-mode:lr-tb;fill:#000000;fill-opacity:1;fill-rule:nonzero;stroke:none;font-family:Impact;-inkscape-font-specification:Impact" /></text>
<text
   x="-8.5530558"
   y="79.195076"
   id="text838-9"
   style="font-size:4.23333359px;fill:#000000;fill-rule:evenodd"><tspan
     x="-8.5530558 -6.6739964"
     y="79.195076"
     id="tspan840-1"
     style="font-size:3.44402862px;font-variant:normal;font-weight:normal;writing-mode:lr-tb;fill:#000000;fill-opacity:1;fill-rule:nonzero;stroke:none;font-family:Impact;-inkscape-font-specification:Impact" /></text>
<text
   x="-4.5824437"
   y="79.195076"
   id="text842-3"
   style="font-size:4.23333359px;fill:#000000;fill-rule:evenodd"><tspan
     x="-4.5824437 -2.6575782 -0.82225102 1.0130761 2.7726281 4.5425105 6.2779536 8.1821585 10.107024"
     y="79.195076"
     id="tspan844-5"
     style="font-size:3.44402862px;font-variant:normal;font-weight:normal;writing-mode:lr-tb;fill:#000000;fill-opacity:1;fill-rule:nonzero;stroke:none;font-family:Impact;-inkscape-font-specification:Impact" /></text>
<text
   x="-10.830949"
   y="82.820602"
   id="text850-9"
   style="font-size:4.23333359px;fill:#000000;fill-rule:evenodd"><tspan
     x="-10.830949"
     y="82.820602"
     id="tspan852-8"
     style="font-size:3.44402862px;font-variant:normal;font-weight:normal;writing-mode:lr-tb;fill:#000000;fill-opacity:1;fill-rule:nonzero;stroke:none;font-family:Impact;-inkscape-font-specification:Impact" /></text>
<text
   x="-8.4631662"
   y="82.820602"
   id="text854-4"
   style="font-size:4.23333359px;fill:#000000;fill-rule:evenodd"><tspan
     x="-8.4631662 -6.6312871 -4.8717351 -3.0846412 -1.3801887 0.45169002 2.211242 3.9708092 5.451385 7.376266 9.1461477 10.981475 12.741027 15.092956"
     y="82.820602"
     id="tspan856-0"
     style="font-size:3.44402862px;font-variant:normal;font-weight:normal;writing-mode:lr-tb;fill:#000000;fill-opacity:1;fill-rule:nonzero;stroke:none;font-family:Impact;-inkscape-font-specification:Impact" /></text>
<text
   x="-6.7842107"
   y="86.445778"
   id="text858-7"
   style="font-size:4.23333359px;fill:#000000;fill-rule:evenodd"><tspan
     x="-6.7842107 -5.0143285 -3.2547767 -1.4952247 0.29188472 1.8344719 4.4068141 6.1663661 8.0016928 9.9265585"
     y="86.445778"
     id="tspan860-6"
     style="font-size:3.44402862px;font-variant:normal;font-weight:normal;writing-mode:lr-tb;fill:#000000;fill-opacity:1;fill-rule:nonzero;stroke:none;font-family:Impact;-inkscape-font-specification:Impact" /></text>
<g
   transform="translate(104.49002,32.136878)"
   id="g5236"><path
     d="m -49.786226,-4.599888 29.11468,2.634174 c 0.83167,0.07519 1.13303,1.119822 0.53418,1.643777 l -22.00668,19.244866 6.49276,28.50769 c 0.18316,0.81488 -0.71774,1.42178 -1.40062,1.01364 l -16.39545,-9.78538 c -0.13598,1.16263 -1.44164,1.83121 -2.46373,1.25828 l -2.39608,-1.44045 c -2.27024,2.37562 -6.26203,1.74529 -8.37642,-0.58484 l -0.70781,0.98305 c -0.96676,0.73939 -2.33887,0.59994 -2.93543,-0.53548 l -16.93073,10.10482 c -0.71665,0.4285 -1.57475,-0.23729 -1.40033,-1.01354 l 6.49247,-28.50779 -22.006884,-19.244668 c -0.62924,-0.550475 -0.25766,-1.573651 0.53577,-1.644074 l 29.113294,-2.634075 11.50227,-26.876227 c 0.32818,-0.77148 1.41959,-0.735026 1.73208,1.98e-4 l 11.50266,26.876029 z"
     id="path10-8"
     style="fill:#7f7f7f;fill-opacity:1;fill-rule:nonzero" /><path
     d="m -62.154536,-31.10751 11.72347,27.393229 29.67489,2.684831 -22.42952,19.614269 6.61682,29.0522 -17.6441,-10.53054 -0.54511,0.81032 c 0.2964,0.18395 0.3996,0.56547 0.2224,0.86872 -0.17879,0.30553 -0.56697,0.42363 -0.87965,0.24892 l -3.13946,-1.88544 c -0.6345,1.00003 -1.70019,1.70496 -2.9843,1.8168 -1.93531,0.16866 -4.01662,-0.84975 -4.97295,-2.55292 l -0.3396,0.28159 c 0.0199,0.15158 -0.20134,0.2963 -0.32977,0.18068 l -0.93944,1.2847 c -0.39255,0.29352 -0.92733,0.22061 -1.22829,-0.16597 -0.29312,-0.37626 -0.24415,-0.92683 0.15217,-1.2115 l -0.0896,-0.15913 -18.45363,11.01377 6.61683,-29.0522 -22.429524,-19.614269 29.674894,-2.684831 11.72346,-27.393229 z"
     id="path12-2"
     style="fill:#800000;fill-rule:evenodd" /><path
     d="m -44.780107,18.067122 6.060985,26.609929 -23.435411,-13.986353 -23.435411,13.986353 6.060985,-26.609929 -20.544971,-17.966221 27.181064,-2.459159 10.738333,-25.091106 10.738333,25.091106 27.181064,2.459159 z"
     id="polygon14-8"
     style="fill:#9a0000;fill-rule:evenodd" /><path
     d="m -46.374319,17.548631 5.504749,24.169444 -21.284963,-12.704031 -21.285957,12.704031 5.504749,-24.169444 -18.659728,-16.31728 24.687935,-2.233585 9.753001,-22.789085 9.753001,22.789085 24.686941,2.233585 z"
     id="polygon16-6"
     style="fill:#b30000;fill-rule:evenodd" /><path
     d="m -47.968531,17.031133 4.948513,21.726972 -19.134515,-11.419722 -19.135509,11.419722 4.948513,-21.726972 -16.774486,-14.669431 22.193813,-2.007912 8.767669,-20.486964 8.767668,20.486964 22.193813,2.007912 z"
     id="polygon18-0"
     style="fill:#cd0000;fill-rule:evenodd" /><path
     d="m -62.242936,-7.556779 c 10.79803,0 19.57782,8.754558 19.57782,19.577818 0,7.34172 -5.07109,15.46554 -11.02519,19.95635 -2.34633,-1.81651 -5.55044,-2.95182 -9.08244,-2.95182 -3.30504,0 -6.33255,0.98394 -8.65364,2.59861 -5.67659,-4.5665 -10.39446,-12.51372 -10.39446,-19.60314 0,-10.82326 8.75455,-19.577818 19.57791,-19.577818 z"
     id="path24-7"
     style="fill:url(#radialGradient5257);fill-opacity:1;fill-rule:evenodd" /><path
     d="m -39.166096,43.417579 -5.02539,-21.9157 -0.56568,4.36238 5.59107,17.55332 z m -45.9434,1.9e-4 5.0244,-21.91639 0.56637,4.36348 -5.59077,17.55291 z m 60.99643,-43.977895 -22.79067,-1.362678 c 5.93404,4.193621 14.60844,1.739925 22.79067,1.362678 z m -37.95356,-19.317378 c -1.22014,-0.0046 -4.16512,7.061912 -8.84713,13.292648 2.00543,-3.577193 3.71764,-7.3001 5.29159,-11.083497 1.85852,-4.46727 2.51528,-6.688836 3.52127,-6.677414 1.00599,0.01142 1.67149,2.547759 3.72181,7.404196 1.15012,2.724463 3.001,6.11492 4.98279,10.356715 -1.90829,-1.937687 -7.45019,-13.288079 -8.67033,-13.292648 z m -38.096004,19.317378 22.790674,-1.362678 c -5.93404,4.193621 -14.60844,1.739925 -22.790674,1.362678 z"
     id="path26-2"
     style="fill:#e6e6e6;fill-rule:evenodd" /><path
     d="m -73.696426,25.140259 -1.21101,0.95871 0.65596,0.80734 1.21101,-0.95871 0.22706,0.25229 -1.48852,1.18577 -1.08486,-1.33715 1.46329,-1.18577 0.22707,0.27752 z m 0.4289,-27.575496 -0.80734,0.70642 c -0.27752,0.201834 -0.30275,0.580273 -0.0757,0.832566 0.20184,0.252293 0.58027,0.302751 0.83257,0.07569 l 0.88302,-0.731649 0.22706,0.277522 -0.88302,0.731649 c -0.40367,0.32798 -1.00917,0.277522 -1.33715,-0.126147 -0.32798,-0.403668 -0.27752,-1.00917 0.12615,-1.337151 l 0.80733,-0.68119 0.22707,0.252292 z m -6.66053,18.770476 0.45412,1.21101 0.40367,-0.12615 -0.40367,-1.05963 0.32799,-0.12614 0.40366,1.05963 0.40367,-0.15138 -0.45413,-1.18578 0.32799,-0.10091 0.55504,1.48852 -1.76605,0.65597 -0.58027,-1.53899 0.32798,-0.12615 z m 2.6743,3.63302 c -0.10092,-0.27752 -0.32798,-0.30275 -0.6055,-0.17661 l -1.05963,0.40367 -0.55505,-1.36238 1.76605,-0.70642 0.12615,0.32798 -1.43807,0.55505 0.30275,0.75687 0.73165,-0.30275 c 0.4289,-0.1766 0.8578,-0.0757 1.05963,0.35321 l 0,0 0,0.0252 -0.32798,0.12615 z m 2.74999,4.08714 -1.51376,1.13532 -0.80733,-1.08486 c -0.25229,-0.30275 -0.17661,-0.75688 0.12614,-1.00917 0.32799,-0.22707 0.78211,-0.17661 1.00918,0.15137 l 0.6055,0.80734 0.35321,-0.27752 0.22706,0.27752 z m -1.43807,0.65596 0.58028,-0.45413 -0.60551,-0.80733 c -0.12614,-0.17661 -0.35321,-0.20184 -0.52981,-0.0757 -0.15138,0.12615 -0.20184,0.35321 -0.0757,0.52981 l 0.63073,0.80734 z m -2.92659,-16.87828 -1.00917,-1.38761 0.10091,-0.35321 1.81651,0.50458 -0.10092,0.32798 -1.31192,-0.35321 1.00917,1.38761 -0.0757,0.35321 -1.8165,-0.52981 0.0757,-0.32798 1.31193,0.37844 z m -1.51376,8.07327 -0.30275,-2.04358 0.32798,-0.0504 0.12615,0.85779 1.53898,-0.22706 0.0505,0.32798 -1.53899,0.22706 0.12615,0.8578 -0.32798,0.0505 z m 2.34632,5.44952 c 0.0757,-0.27752 0.2523,-0.47936 0.50459,-0.6055 l 0,0 0,0 c 0.25229,-0.12615 0.52981,-0.12615 0.78211,-0.0252 0.25229,0.10091 0.45412,0.30275 0.58027,0.58027 0.12615,0.25229 0.15137,0.55504 0.0757,0.80734 -0.0757,0.25229 -0.2523,0.45412 -0.50459,0.58027 l 0,0 0,0 0,0 c -0.25229,0.12615 -0.52981,0.12615 -0.78211,0.0252 -0.25229,-0.10092 -0.45412,-0.30275 -0.58027,-0.58027 -0.12615,-0.2523 -0.15137,-0.55505 -0.0757,-0.78211 z m 0.35321,0.65596 0,0 0,0 c 0.10092,0.1766 0.2523,0.32798 0.40367,0.40367 0.17661,0.0505 0.37844,0.0505 0.52982,-0.0252 l 0,0 0,0 0,0 c 0.1766,-0.0757 0.27752,-0.22706 0.32798,-0.37844 0.0757,-0.17661 0.0505,-0.37844 -0.0252,-0.58027 l 0,0 0,0 c -0.10092,-0.17661 -0.2523,-0.32798 -0.4289,-0.40367 -0.15138,-0.0505 -0.35321,-0.0505 -0.50459,0.0252 l 0,0 c -0.1766,0.0757 -0.27752,0.22706 -0.35321,0.37844 -0.0505,0.1766 -0.0252,0.37844 0.0505,0.58027 z m -1.13531,-8.47704 -1.91743,-0.70642 0,-0.88302 1.86697,-0.78211 0,0.35321 -0.40367,0.17661 c 0.0757,0.42889 0.10092,0.88302 0.0252,1.31192 l 0.40367,0.15138 0.0252,0.37843 z m -0.75688,-0.65596 c 0.0505,-0.35321 0.0252,-0.70642 -0.0252,-1.05963 l -0.80734,0.35321 0.0252,0.40367 0.80734,0.30275 z m 9.88987,-15.742963 0.55505,-1.261464 -1.2867,-0.479356 0.47936,-0.201834 0.95871,0.378439 0.4289,-0.958712 0.45413,-0.176605 -0.55505,1.261463 1.2867,0.479356 -0.47936,0.201835 -0.95871,-0.37844 -0.40367,0.933484 -0.47936,0.201834 z m -5.80273,3.077971 c 0.0757,-0.07569 0.0505,-0.201834 -0.0252,-0.277522 -0.0757,-0.07569 -0.22706,-0.05046 -0.27752,0.02523 l -0.65596,0.807337 0.32798,0.252293 0.63073,-0.807337 z m -0.0252,1.311922 0.70642,-0.883024 c 0.0757,-0.100918 0.0757,-0.252293 -0.0252,-0.327981 -0.12615,-0.100917 -0.25229,-0.05046 -0.32798,0.05046 l -0.70642,0.883024 0.35321,0.277522 z m 0.8578,-1.488527 c 0.27752,0.201834 0.32798,0.580273 0.12614,0.832566 l -0.90825,1.135317 -1.48853,-1.160546 0.8578,-1.084859 c 0.1766,-0.227063 0.52981,-0.277522 0.75687,-0.100917 0.10092,0.07569 0.15138,0.176605 0.20184,0.277522 0.15137,-0.02523 0.32798,0 0.45413,0.100917 z m -4.16283,10.671887 -1.8922,-0.15138 0.10092,-1.33705 c 0.0252,-0.40367 0.37844,-0.70642 0.7821,-0.65596 0.37844,0.0252 0.6812,0.37844 0.65597,0.75688 l -0.0757,1.00917 0.45412,0.0251 -0.0252,0.35321 z m -1.51376,-0.45403 0.75688,0.0505 0.0757,-1.00917 c 0,-0.20184 -0.15138,-0.37844 -0.35321,-0.40367 -0.20184,0 -0.40367,0.15137 -0.40367,0.35321 l -0.0757,1.00917 z m 1.18578,-5.72705 1.23623,0.58028 -0.78211,-1.53899 0.15138,-0.32798 1.71559,0.80734 -0.15138,0.30275 -1.23623,-0.58027 0.78211,1.56421 -0.15138,0.30275 -1.71559,-0.80734 0.15138,-0.30275 z m 8.12382,-8.426573 -1.16055,0.756878 0.22707,0.35321 0.93348,-0.605503 0.20183,0.277522 -0.95871,0.630732 0.2523,0.35321 1.16054,-0.756879 0.20184,0.277522 -1.4633,0.958713 -1.0344,-1.589444 1.4633,-0.958713 0.1766,0.302752 z m 7.56878,-2.270635 -1.08486,0.100917 c -0.32798,0.05046 -0.55504,0.35321 -0.52981,0.681191 0.0505,0.32798 0.32798,0.555044 0.65596,0.529814 l 1.13532,-0.126146 0.0505,0.35321 -1.13532,0.100917 c -0.52982,0.07569 -0.98394,-0.327981 -1.0344,-0.832566 -0.0505,-0.504586 0.32798,-0.983942 0.83256,-1.0344 l 1.05963,-0.126147 0.0505,0.35321 z m 2.62375,-0.277522 0,0.327981 -0.8578,0 0,1.564215 -0.32798,0 -0.0252,-1.538986 -0.85769,0 0,-0.35321 2.0687,0 z m 15.49077,20.53653 0.73165,0.0505 0.0757,-0.80734 -0.68119,-0.50459 0.0252,-0.37843 0.75687,0.50458 c 0.10092,-0.1766 0.32798,-0.30275 0.55505,-0.27752 0.30275,0.0252 0.52981,0.30275 0.50458,0.63073 l -0.10091,1.28669 -1.8922,-0.1766 0.0252,-0.32798 z m 1.08486,0.0757 0.45413,0.0504 0.10091,-0.95871 c 0,-0.12614 -0.0757,-0.22706 -0.22706,-0.25229 -0.12615,0 -0.22706,0.10092 -0.25229,0.22706 l -0.0757,0.93349 z m -9.61235,-18.8714 -0.32798,0.655961 0.95871,0.479356 0.32798,-0.630732 0.30275,0.151376 -0.8578,1.690361 -0.30275,-0.176605 0.37844,-0.731649 -0.95871,-0.479356 -0.37844,0.731649 -0.30275,-0.151376 0.85779,-1.690361 0.30276,0.151376 z m 8.17428,11.27748 -0.73165,0.27753 -0.12614,-0.30275 0.40366,-0.17661 -0.6055,-1.4633 -0.40367,0.15138 -0.12614,-0.32798 0.73165,-0.27752 0.10091,0.27752 1.56422,-0.32798 0.47935,1.23623 -1.43807,0.55505 0.15138,0.37843 z m -0.6055,-1.51375 0.32798,0.83256 1.11009,-0.45412 -0.2523,-0.63073 -1.18577,0.25229 z m -1.86697,20.259 -0.37844,-0.30275 -0.58027,0.75688 c -0.22706,0.30275 -0.68119,0.35321 -0.98394,0.12615 -0.30275,-0.22707 -0.35321,-0.68119 -0.12615,-0.98394 l 0.78211,-1.0344 1.51376,1.16054 -0.22707,0.27752 z m -0.65596,-0.52981 -0.55504,-0.4289 -0.58028,0.75688 c -0.12614,0.15138 -0.10091,0.37844 0.0505,0.50459 0.17661,0.12614 0.40367,0.0757 0.50459,-0.0757 l 0.58027,-0.75688 z m 4.89448,-17.50902 -1.31192,0.27753 1.53898,0.75687 0.0757,0.35321 -1.84174,0.40367 -0.0757,-0.32798 1.33715,-0.30275 -1.56422,-0.75688 -0.0757,-0.32798 1.84174,-0.40367 0.0757,0.32798 z m 0.15138,8.88061 -1.31193,-0.37844 1.00917,1.38761 -0.10091,0.35321 -1.81651,-0.52982 0.10092,-0.32798 1.31192,0.37844 -1.00917,-1.41284 0.10091,-0.32798 1.79128,0.52982 -0.0757,0.32798 z m -5.27292,-17.004432 -0.78211,-0.731648 c -0.25229,-0.227064 -0.63073,-0.201835 -0.8578,0.02523 -0.22706,0.252293 -0.20183,0.630732 0.0252,0.857795 l 0.83257,0.782108 -0.22706,0.252292 -0.83257,-0.782107 c -0.37844,-0.35321 -0.40367,-0.958713 -0.0505,-1.337152 0.35321,-0.378439 0.95871,-0.403668 1.33715,-0.05046 l 0.78211,0.731649 -0.22706,0.252292 z m 1.23623,25.077802 0.58027,-0.90826 c 0.20184,-0.27752 0.10092,-0.65596 -0.1766,-0.83256 -0.27752,-0.17661 -0.65596,-0.10092 -0.83257,0.1766 l -0.6055,0.95871 -0.30275,-0.1766 0.63073,-0.95871 c 0.27752,-0.45413 0.8578,-0.58028 1.31192,-0.27753 0.4289,0.27753 0.55505,0.8578 0.27753,1.2867 l -0.58028,0.90825 -0.30275,-0.1766 z m 1.99311,-20.78883 -0.68119,-1.160542 -0.37844,0.227064 0.58028,0.958708 -0.30275,0.17661 -0.58028,-0.983943 -0.35321,0.227063 0.65596,1.16055 -0.27752,0.1766 -0.85779,-1.463296 1.6399,-0.958712 0.83257,1.463298 -0.27753,0.1766 z m -0.6055,18.51819 0.58027,-1.18577 -0.37843,-0.20184 -0.50459,1.00917 -0.30275,-0.15137 0.50458,-1.00917 -0.37843,-0.17661 -0.60551,1.18578 -0.30275,-0.15138 0.73165,-1.48853 1.71559,0.83257 -0.75688,1.48853 -0.30275,-0.15138 z m 3.02751,-11.78197 -0.73164,0.0757 0.10091,1.05953 0.73165,-0.0505 0.0252,0.32798 -1.89219,0.17661 -0.0252,-0.35321 0.80733,-0.0757 -0.10091,-1.05953 -0.80734,0.0756 -0.0252,-0.35311 1.86697,-0.17661 0.0505,0.35321 z m -0.95871,8.0985 -0.80733,1.91742 -0.30276,-0.12614 0.32798,-0.80734 -1.43806,-0.6055 0.12614,-0.30275 1.43807,0.58027 0.32798,-0.80734 0.32798,0.15138 z m -2.92659,-17.332413 c -0.0252,0.252293 -0.12615,0.504585 -0.32798,0.68119 l 0,0 0,0 c -0.22707,0.201834 -0.50459,0.252293 -0.75688,0.227064 -0.2523,-0.02523 -0.52982,-0.151376 -0.70642,-0.37844 l 0,0 c -0.20184,-0.227063 -0.27752,-0.504585 -0.27752,-0.756878 0.0252,-0.277522 0.12614,-0.529814 0.32798,-0.706419 0.22706,-0.176605 0.47935,-0.252293 0.75687,-0.227064 0.2523,0.02523 0.50459,0.176605 0.70642,0.378439 0.20184,0.227064 0.27753,0.504586 0.27753,0.782108 z m -1.0344,-0.832566 c -0.17661,-0.02523 -0.35321,0.02523 -0.47936,0.151375 l 0,0 0,0 c -0.15138,0.100918 -0.22706,0.277522 -0.22706,0.454127 0,0.201835 0.0505,0.378439 0.20183,0.555044 l 0,0 0,0 0,0 c 0.12615,0.151376 0.30275,0.252293 0.47936,0.252293 0.20183,0.02523 0.37844,-0.02523 0.50458,-0.126146 l 0,0 0,0 c 0.15138,-0.126147 0.22707,-0.302752 0.22707,-0.479356 0,-0.176605 -0.0505,-0.37844 -0.20184,-0.529815 -0.12614,-0.176605 -0.30275,-0.252293 -0.50458,-0.277522 z m -3.05275,26.011279 c 0.10092,0 0.20184,0.0757 0.20184,0.17661 0,0.12614 -0.10092,0.20183 -0.20184,0.20183 -0.10091,0 -0.20183,-0.0757 -0.20183,-0.20183 0,-0.10092 0.10092,-0.17661 0.20183,-0.17661 z m 0.37844,0.30275 1.13532,0.95871 -0.30275,0.30276 -1.05963,-1.00918 0.22706,-0.25229 z m -1.76605,-28.00439 c -0.0505,0.05046 -0.32798,0.151375 -0.40366,0.176604 l -0.10092,-0.05046 0.12615,-0.151376 c -0.12615,-0.151375 -0.0252,-0.428897 0.20183,-0.428897 0.22706,0 0.35321,0.277522 0.1766,0.454127 z m 9.03208,17.88745 0.40367,0.45413 -0.25229,0.20184 -0.32798,-0.52982 0.1766,-0.12615 z m -16.22242,-22.655783 1.36238,0.151376 c 0.37844,0.02523 0.68119,0.403668 0.63073,0.782107 -0.0505,0.403669 -0.40366,0.681191 -0.80733,0.630732 l -0.98394,-0.100917 -0.0757,0.454127 -0.32798,-0.05046 0.20183,-1.866966 z m 0.30275,0.378439 -0.0757,0.731649 1.00917,0.126147 c 0.20183,0.02523 0.37844,-0.126147 0.40366,-0.327981 0.0252,-0.201834 -0.12614,-0.403668 -0.32798,-0.428898 l -1.00917,-0.100917 z m 3.15366,0.252293 0.80734,0.302751 0.10092,2.018342 -0.35321,-0.126146 -0.0252,-0.428898 c -0.4289,-0.07569 -0.8578,-0.201834 -1.23624,-0.428898 l -0.27752,0.327981 -0.35321,-0.126146 1.33715,-1.538986 z m -0.47935,1.059629 c 0.32798,0.176605 0.65596,0.277522 1.00917,0.35321 l -0.0505,-0.883024 -0.37844,-0.126147 -0.58027,0.655961 z"
     id="_158796456-4"
     style="fill:#000000;fill-rule:evenodd" /><path
     d="m -62.772356,26.654019 -2.52292,0.20183 c -0.2523,0.0252 -0.45413,0.27752 -0.4289,0.55504 0.0252,0.2523 0.27752,0.4289 0.52981,0.4289 l 2.4977,-0.22706 0.0505,0.40367 -2.52293,0.22706 c -0.47935,0.0505 -0.90825,-0.32798 -0.95871,-0.80734 -0.0505,-0.47935 0.32798,-0.93348 0.80734,-0.98394 l 2.52292,-0.22706 0.0252,0.4289 z m 5.62603,2.62384 0.88303,-1.8922 2.14448,1.00918 c 0.35321,0.1766 0.50459,0.6055 0.35321,0.95871 -0.1766,0.35321 -0.6055,0.50458 -0.98394,0.35321 l -1.76605,-0.8578 -0.27752,0.6055 -0.35321,-0.1766 z m 1.08486,-1.36238 -0.27752,0.58027 1.76605,0.83257 c 0.1766,0.0757 0.35321,0 0.4289,-0.15138 0.0757,-0.15137 0,-0.32798 -0.15138,-0.40367 l -1.76605,-0.85779 z m -11.60536,-0.55504 -2.29587,1.05962 c -0.22706,0.10092 -0.35321,0.40367 -0.22706,0.65597 0.10092,0.22706 0.40367,0.32798 0.63073,0.22706 l 2.29586,-1.05963 0.15138,0.37844 -2.27064,1.0344 c -0.45412,0.20183 -0.98394,0.0252 -1.18577,-0.40367 -0.20184,-0.45413 0,-1.00917 0.4289,-1.211 l 2.29586,-1.05963 0.17661,0.37844 z m 9.66271,-0.0757 -2.47247,-0.50459 c -0.25229,-0.0505 -0.50459,0.12615 -0.55505,0.40367 -0.0505,0.25229 0.10092,0.50459 0.37844,0.55504 l 2.44724,0.50459 -0.0757,0.40367 -2.47247,-0.50459 c -0.47936,-0.10091 -0.78211,-0.58027 -0.68119,-1.0344 0.0757,-0.50458 0.58027,-0.80733 1.0344,-0.73165 l 2.47246,0.50459 -0.0757,0.40367 z"
     id="_158796384-8"
     style="fill:#000000;fill-rule:evenodd" /><path
     d="m -73.898066,24.989279 -1.211,0.98394 0.65596,0.80734 1.211,-0.98394 0.20184,0.27752 -1.4633,1.18578 -1.08486,-1.33716 1.4633,-1.18577 0.22706,0.25229 z m 0.4289,-27.550265 -0.83257,0.681191 c -0.25229,0.227063 -0.27752,0.605502 -0.0504,0.857795 0.20183,0.252293 0.58027,0.277522 0.83256,0.07569 l 0.88303,-0.731649 0.20183,0.252293 -0.8578,0.731648 c -0.40366,0.327981 -1.00917,0.277522 -1.33715,-0.100917 -0.32798,-0.403668 -0.27752,-1.009171 0.12615,-1.337151 l 0.80734,-0.70642 0.22706,0.277522 z m -6.66053,18.770475 0.45413,1.21101 0.40367,-0.15138 -0.40367,-1.05963 0.32798,-0.12614 0.40367,1.05963 0.40367,-0.15138 -0.45413,-1.16054 0.32798,-0.12615 0.55504,1.48853 -1.76605,0.68119 -0.58027,-1.56422 0.32798,-0.10092 z m 2.6743,3.60779 c -0.10091,-0.25229 -0.3532,-0.27752 -0.6055,-0.1766 l -1.05963,0.42889 -0.55504,-1.38761 1.76605,-0.68119 0.12614,0.30275 -1.43806,0.58028 0.27752,0.73165 0.75688,-0.27753 c 0.42889,-0.1766 0.85779,-0.10091 1.05963,0.35321 l 0,0 0,0 -0.32799,0.12615 z m 2.72477,4.08714 -1.48853,1.13532 -0.83257,-1.05963 c -0.22706,-0.32798 -0.1766,-0.78211 0.15138,-1.00917 0.30275,-0.25229 0.75688,-0.17661 1.00917,0.12615 l 0.6055,0.80733 0.35321,-0.27752 0.20184,0.27752 z m -1.43807,0.65596 0.6055,-0.45412 -0.6055,-0.78211 c -0.12615,-0.17661 -0.35321,-0.20184 -0.52982,-0.0757 -0.15137,0.12615 -0.20183,0.35321 -0.0757,0.52982 l 0.6055,0.7821 z m -2.90137,-16.87828 -1.00917,-1.38761 0.0757,-0.35321 1.81651,0.52981 -0.0757,0.32799 -1.33715,-0.37844 1.0344,1.41284 -0.10092,0.32798 -1.81651,-0.50459 0.10092,-0.32798 1.31192,0.35321 z m -1.51375,8.0985 -0.32799,-2.0688 0.35321,-0.0505 0.12615,0.85779 1.53899,-0.22706 0.0505,0.35321 -1.53899,0.22706 0.12615,0.8578 -0.32798,0.0505 z m 2.34632,5.42429 c 0.0757,-0.25229 0.25229,-0.47936 0.50458,-0.58027 l 0,0 0,0 c 0.2523,-0.12615 0.52982,-0.12615 0.78211,-0.0252 0.25229,0.10091 0.45413,0.30275 0.58027,0.55504 0.12615,0.27752 0.15138,0.55505 0.0757,0.80734 -0.10092,0.25229 -0.27752,0.47935 -0.52981,0.58027 l 0,0.0252 0,0 c -0.2523,0.10092 -0.52982,0.10092 -0.75688,0 -0.25229,-0.10092 -0.47936,-0.30275 -0.6055,-0.55504 -0.12615,-0.27753 -0.12615,-0.55505 -0.0505,-0.80734 z m 0.30275,0.10092 c -0.0505,0.1766 -0.0505,0.37844 0.0505,0.55504 0.10091,0.20184 0.25229,0.32798 0.40367,0.40367 0.1766,0.0757 0.35321,0.0757 0.52981,0 l 0,0 0,0 c 0.17661,-0.0757 0.27752,-0.22706 0.32798,-0.40367 0.0505,-0.1766 0.0505,-0.37844 -0.0252,-0.55504 l 0,0 -0.0252,0 0.0252,0 c -0.10092,-0.20184 -0.25229,-0.32798 -0.4289,-0.40367 -0.15137,-0.0757 -0.35321,-0.0757 -0.50458,0 -0.17661,0.0757 -0.30275,0.22706 -0.35321,0.40367 z m -1.08486,-7.92199 -1.91742,-0.70642 -0.0252,-0.88303 1.89219,-0.78211 0,0.37844 -0.4289,0.17661 c 0.10092,0.4289 0.12615,0.85779 0.0505,1.28669 l 0.40367,0.17661 0.0252,0.35321 z m -0.75688,-0.63074 c 0.0505,-0.35321 0.0252,-0.70642 -0.0252,-1.05963 l -0.80733,0.32799 0,0.42889 0.83256,0.30275 z m 9.88988,-15.742962 0.55504,-1.261464 -1.28669,-0.504585 0.47935,-0.176605 0.95872,0.35321 0.40366,-0.933484 0.47936,-0.201834 -0.58027,1.261464 1.28669,0.504585 -0.45413,0.176605 -0.95871,-0.35321 -0.4289,0.933484 -0.45412,0.201834 z m -5.80274,3.077971 c 0.0757,-0.100917 0.0505,-0.227064 -0.0252,-0.302751 -0.10091,-0.05046 -0.22706,-0.05046 -0.27752,0.05046 l -0.65596,0.807337 0.30275,0.252293 0.65596,-0.807337 z m -0.0252,1.311922 0.70642,-0.883025 c 0.0757,-0.100917 0.0505,-0.252292 -0.0504,-0.32798 -0.12615,-0.100917 -0.22707,-0.05046 -0.30276,0.02523 l -0.70642,0.883025 0.35321,0.302751 z m 0.8578,-1.488527 c 0.25229,0.176605 0.32798,0.555044 0.12615,0.807337 l -0.93349,1.160546 -1.46329,-1.185776 0.85779,-1.084858 c 0.17661,-0.227064 0.50459,-0.277522 0.75688,-0.100917 0.0757,0.07569 0.15137,0.176605 0.20183,0.302751 0.15138,-0.05046 0.32798,0 0.45413,0.100917 z m -4.16283,10.646656 -1.8922,-0.12615 0.10092,-1.36228 c 0.0252,-0.37844 0.37844,-0.68119 0.78211,-0.65596 0.37844,0.0252 0.68119,0.37844 0.65596,0.78211 l -0.0757,1.00917 0.45413,0.0252 -0.0252,0.32788 z m -1.51376,-0.45403 0.73165,0.0757 0.0757,-1.00917 c 0.0252,-0.20184 -0.12615,-0.40367 -0.32798,-0.40367 -0.22706,-0.0252 -0.40367,0.12614 -0.40367,0.32798 l -0.0757,1.00917 z m 1.18578,-5.72704 1.23623,0.58027 -0.7821,-1.53899 0.15137,-0.32798 1.71559,0.80734 -0.15137,0.32798 -1.23624,-0.6055 0.78211,1.56421 -0.15138,0.32798 -1.71559,-0.80733 0.15138,-0.32798 z m 8.12383,-8.426582 -1.18578,0.782108 0.25229,0.353209 0.93349,-0.630731 0.20183,0.302751 -0.95871,0.605502 0.25229,0.37844 1.16055,-0.782108 0.20183,0.302751 -1.4633,0.933483 -1.05963,-1.564214 1.4633,-0.958713 0.20184,0.277522 z m 7.56878,-2.270634 -1.08486,0.126146 c -0.32798,0.02523 -0.55505,0.327981 -0.52982,0.655961 0.0505,0.327981 0.32798,0.580273 0.65596,0.529815 l 1.13532,-0.100917 0.0505,0.32798 -1.13532,0.126147 c -0.52981,0.05046 -0.98394,-0.327981 -1.0344,-0.832566 -0.0505,-0.529815 0.30275,-0.983942 0.83257,-1.05963 l 1.05963,-0.100917 0.0505,0.327981 z m 2.62374,-0.277522 0,0.35321 -0.85779,0 0,1.538985 -0.35311,0 0,-1.538985 -0.8578,0 0,-0.327981 2.0687,-0.02523 z m 15.49077,20.536528 0.73165,0.0757 0.0757,-0.83257 -0.68119,-0.47935 0.0252,-0.40367 0.75688,0.52981 c 0.10092,-0.20183 0.32798,-0.30275 0.52981,-0.30275 0.32798,0.0505 0.55505,0.32798 0.52982,0.63073 l -0.10092,1.2867 -1.89219,-0.15138 0.0252,-0.35321 z m 1.08486,0.10092 0.45413,0.0505 0.10092,-0.95872 c 0,-0.12614 -0.10092,-0.25229 -0.22707,-0.25229 -0.12614,0 -0.22706,0.0757 -0.25229,0.20183 l -0.0757,0.95872 z m -9.61235,-18.871399 -0.32798,0.630732 0.95871,0.504585 0.32798,-0.655961 0.30275,0.176605 -0.85779,1.665132 -0.30275,-0.151376 0.37844,-0.731649 -0.95872,-0.504585 -0.37843,0.731649 -0.30276,-0.151376 0.8578,-1.665132 0.30275,0.151376 z m 8.14906,11.252259 -0.70642,0.30275 -0.15138,-0.32798 0.4289,-0.15138 -0.6055,-1.48853 -0.40367,0.17661 -0.12615,-0.32798 0.73165,-0.30275 0.10092,0.30275 1.53898,-0.32798 0.50459,1.211 -1.43807,0.58028 0.12615,0.35321 z m -0.60551,-1.48853 0.35321,0.80734 1.11009,-0.45413 -0.25229,-0.6055 -1.21101,0.25229 z m -1.84173,20.23378 -0.37844,-0.30276 -0.58028,0.75688 c -0.22706,0.30275 -0.68119,0.37844 -0.98394,0.12615 -0.30275,-0.22706 -0.35321,-0.65596 -0.12614,-0.95871 l 0.7821,-1.0344 1.51376,1.13531 -0.22706,0.27753 z m -0.65596,-0.50459 -0.55505,-0.4289 -0.58027,0.75688 c -0.12615,0.15138 -0.10092,0.37844 0.0505,0.47936 0.15137,0.12614 0.37844,0.10091 0.50458,-0.0505 l 0.58028,-0.75688 z m 4.89447,-17.50902 -1.33715,0.27753 1.56422,0.75688 0.0757,0.3532 -1.84174,0.37844 -0.0757,-0.32798 1.33715,-0.27752 -1.56421,-0.75688 -0.0757,-0.35321 1.84174,-0.40366 0.0757,0.3532 z m 0.12615,8.85538 -1.28669,-0.37844 1.00917,1.41284 -0.10092,0.32798 -1.81651,-0.50458 0.10092,-0.32799 1.31192,0.37844 -1.00917,-1.41284 0.0757,-0.32798 1.81651,0.50459 -0.10092,0.32798 z m -5.24769,-17.00443 -0.80734,-0.731649 c -0.22706,-0.201834 -0.6055,-0.201834 -0.83256,0.05046 -0.22706,0.227063 -0.22706,0.630732 0.0252,0.857795 l 0.83256,0.756878 -0.22706,0.252293 -0.83257,-0.756878 c -0.37843,-0.35321 -0.40366,-0.958713 -0.0505,-1.337152 0.35321,-0.378439 0.93348,-0.403668 1.33715,-0.07569 l 0.78211,0.731648 -0.22707,0.252293 z m 1.23624,25.0778 0.58027,-0.90826 c 0.1766,-0.25229 0.10092,-0.63073 -0.17661,-0.80733 -0.27752,-0.20184 -0.65596,-0.10092 -0.83256,0.1766 l -0.6055,0.93348 -0.30276,-0.1766 0.63074,-0.95871 c 0.27752,-0.4289 0.85779,-0.55505 1.28669,-0.27752 0.45413,0.27752 0.58027,0.88302 0.30275,1.31192 l -0.6055,0.90825 -0.27752,-0.20183 z m 1.96788,-20.78882 -0.65596,-1.16055 -0.37844,0.227063 0.55504,0.983937 -0.27752,0.15138 -0.58027,-0.958712 -0.37844,0.227064 0.68119,1.135318 -0.30275,0.1766 -0.83257,-1.438065 1.6399,-0.958712 0.83257,1.438067 -0.30275,0.17661 z m -0.58027,18.51818 0.58027,-1.16054 -0.37844,-0.20184 -0.50459,1.00917 -0.30275,-0.15137 0.50459,-1.00917 -0.40367,-0.20184 -0.58027,1.18578 -0.30275,-0.15138 0.73164,-1.48852 1.69037,0.83256 -0.73165,1.48853 -0.30275,-0.15138 z m 3.00228,-11.75674 -0.70642,0.0505 0.10092,1.08476 0.70642,-0.0757 0.0505,0.35321 -1.89219,0.17661 -0.0252,-0.35321 0.80734,-0.0757 -0.10092,-1.08476 -0.80734,0.0757 -0.0505,-0.32798 1.8922,-0.17661 0.0252,0.35321 z m -0.93348,8.07327 -0.80734,1.91742 -0.30275,-0.12614 0.32798,-0.80734 -1.43807,-0.58027 0.12615,-0.32798 1.43807,0.6055 0.32798,-0.80734 0.32798,0.12615 z m -2.9266,-17.332412 c -0.0252,0.277522 -0.12615,0.529815 -0.35321,0.70642 l 0,0 0,0 0,0 c -0.20183,0.176605 -0.47936,0.252293 -0.73165,0.227064 -0.27752,-0.05046 -0.52981,-0.176605 -0.70642,-0.403669 l 0,0 0,0 c -0.20183,-0.201834 -0.27752,-0.479356 -0.27752,-0.756878 0,-0.252293 0.12615,-0.504585 0.32798,-0.70642 l 0,0 c 0.22706,-0.176604 0.47936,-0.252292 0.75688,-0.201834 0.25229,0.02523 0.50458,0.151376 0.70642,0.378439 0.1766,0.227064 0.27752,0.504586 0.27752,0.756878 z m -1.0344,-0.832566 c -0.1766,0 -0.35321,0.02523 -0.50458,0.151376 -0.12615,0.126146 -0.20184,0.302751 -0.20184,0.479356 -0.0252,0.176605 0.0505,0.378439 0.17661,0.529815 l 0,0 c 0.15137,0.151376 0.32798,0.252293 0.50458,0.277522 0.17661,0.02523 0.37844,-0.02523 0.50459,-0.151376 0.15137,-0.100917 0.22706,-0.277522 0.22706,-0.454127 0,-0.201834 -0.0505,-0.378439 -0.20183,-0.555044 -0.12615,-0.151375 -0.30276,-0.252292 -0.50459,-0.277522 z m -3.05274,26.011278 c 0.10092,0 0.20183,0.10092 0.20183,0.20184 0,0.10091 -0.10091,0.20183 -0.20183,0.20183 -0.10092,0 -0.20184,-0.10092 -0.20184,-0.20183 0,-0.10092 0.10092,-0.20184 0.20184,-0.20184 z m 0.35321,0.32798 1.16054,0.93349 -0.30275,0.32798 -1.05963,-1.00917 0.20184,-0.2523 z m -1.74082,-28.029619 c -0.0505,0.05046 -0.32798,0.151376 -0.40367,0.201834 l -0.10092,-0.05046 0.12615,-0.151376 c -0.12615,-0.176605 -0.0252,-0.428897 0.20183,-0.428897 0.22707,0 0.32798,0.277522 0.17661,0.428897 z m 9.03208,17.887459 0.40367,0.47935 -0.2523,0.20184 -0.35321,-0.52982 0.20184,-0.15137 z m -16.22242,-22.655791 1.33715,0.151376 c 0.40367,0.05046 0.68119,0.403668 0.65596,0.807336 -0.0505,0.378439 -0.40367,0.681191 -0.80734,0.630732 l -1.00917,-0.126146 -0.0505,0.454127 -0.32798,-0.02523 0.20184,-1.892195 z m 0.30275,0.378439 -0.0757,0.756878 1.00917,0.100917 c 0.20183,0.02523 0.37844,-0.126146 0.40367,-0.32798 0.0252,-0.201835 -0.12615,-0.378439 -0.32798,-0.403669 l -1.00917,-0.126146 z m 3.12843,0.277522 0.83256,0.277522 0.10092,2.043571 -0.35321,-0.126146 -0.0252,-0.454127 c -0.4289,-0.07569 -0.85779,-0.201834 -1.23623,-0.428898 l -0.27753,0.35321 -0.3532,-0.126146 1.31192,-1.538986 z m -0.45413,1.059629 c 0.30275,0.176605 0.65596,0.277522 1.00917,0.327981 l -0.0505,-0.857795 -0.37844,-0.126147 -0.58027,0.655961 z"
     id="_158796312-6"
     style="fill:#cccccc;fill-rule:evenodd" /><path
     d="m -62.973986,26.503039 -2.52293,0.22706 c -0.25229,0.0252 -0.45413,0.25229 -0.4289,0.52982 0.0252,0.25229 0.2523,0.45412 0.52982,0.42889 l 2.4977,-0.22706 0.0504,0.4289 -2.52292,0.20183 c -0.47936,0.0505 -0.90826,-0.32798 -0.95871,-0.78211 -0.0505,-0.50458 0.32798,-0.93348 0.80733,-0.98394 l 2.4977,-0.22706 0.0505,0.40367 z m 5.6008,2.62384 0.90825,-1.89219 2.14449,1.00917 c 0.35321,0.1766 0.50458,0.63073 0.32798,0.98394 -0.15138,0.35321 -0.6055,0.50458 -0.95871,0.32798 l -1.76605,-0.83257 -0.27752,0.58028 -0.37844,-0.17661 z m 1.11009,-1.33715 -0.27753,0.55504 1.76605,0.8578 c 0.15138,0.0757 0.35321,0 0.4289,-0.15138 0.0757,-0.15137 0,-0.35321 -0.15138,-0.42889 l -1.76604,-0.83257 z m -11.60537,-0.55504 -2.29586,1.0344 c -0.2523,0.12614 -0.35321,0.40366 -0.22707,0.65596 0.10092,0.22706 0.37844,0.32798 0.63073,0.22706 l 2.27064,-1.05963 0.1766,0.37844 -2.27063,1.05963 c -0.45413,0.20183 -0.98394,0 -1.18578,-0.4289 -0.22706,-0.45412 -0.0252,-0.98394 0.4289,-1.18577 l 2.29586,-1.05963 0.17661,0.37844 z m 9.66271,-0.0757 -2.47247,-0.50459 c -0.25229,-0.0505 -0.50458,0.12615 -0.58027,0.37844 -0.0252,0.25229 0.12615,0.50459 0.37844,0.55505 l 2.47247,0.50458 -0.0757,0.40367 -2.47247,-0.50459 c -0.47936,-0.10091 -0.78211,-0.55504 -0.70642,-1.0344 0.10092,-0.47935 0.58027,-0.80733 1.05963,-0.70642 l 2.47247,0.50459 -0.0757,0.40367 z"
     id="_158796240-5"
     style="fill:#cccccc;fill-rule:evenodd" /><path
     d="m -48.062896,-1.776693 c 3.23829,3.235505 5.05361,7.028632 5.60358,10.989632 0.68547,4.93769 -0.65228,9.85213 -3.08184,14.10863 -2.0095,3.52097 -4.71996,6.6795 -7.96143,9.12147 -2.17011,-1.80479 -5.1274,-2.76161 -7.89298,-2.96682 -3.49734,-0.25935 -6.97302,0.60927 -9.85005,2.61113 -1.69652,-1.45357 -3.22259,-2.91627 -4.61219,-4.67387 -3.37069,-4.26315 -5.88477,-9.59676 -5.97109,-15.11055 -0.16915,-10.808061 8.90345,-19.866661 19.77488,-19.864774 5.06642,8.94e-4 10.13283,1.930238 13.99112,5.785152 z m -22.94522,28.954262 c -1.0941,-1.07413 -2.09264,-2.2465 -2.98818,-3.49068 -2.51578,-3.49524 -4.25849,-7.64377 -4.25849,-11.46759 l 0,-7e-4 9e-4,0 c 2e-4,-4.47333 1.81482,-8.52471 4.74737,-11.457068 3.16061,-3.160513 7.30427,-4.741614 11.44764,-4.741713 4.14336,-1.99e-4 8.28642,1.580306 11.44544,4.743004 2.92888,2.932157 4.74331,6.982747 4.7437,11.454987 l 9e-4,0 0,0.002 0,9e-4 -9e-4,0 c -2e-4,2.73568 -0.89246,5.63914 -2.3199,8.34731 -1.36119,2.58282 -3.16607,4.96411 -5.29596,6.96368 0.98692,0.54392 1.90908,1.19372 2.73559,1.95685 1.84322,-1.85693 3.51024,-4.03608 4.84432,-6.37347 2.38208,-4.17375 3.70036,-8.99225 3.03287,-13.82941 -0.53518,-3.87806 -2.31066,-7.592225 -5.48568,-10.764657 -3.77654,-3.773266 -8.73568,-5.661687 -13.69472,-5.66258 -10.64447,-0.0019 -19.53153,8.873055 -19.35552,19.457327 0.09,5.41546 2.56941,10.65222 5.87951,14.83879 0.51233,0.64801 1.05139,1.27696 1.61606,1.88186 0.88909,-0.73453 1.86796,-1.35125 2.90505,-1.85832 z m 19.96012,2.60627 c -3.32569,-3.06198 -8.2458,-4.24557 -12.64383,-4.01027 -3.52356,0.18863 -7.17455,1.29772 -9.93299,3.56697 0.75629,0.78707 1.55727,1.53113 2.40255,2.22007 2.86054,-1.93987 6.43415,-2.75774 9.86097,-2.50276 2.81018,0.20908 5.60616,1.15101 7.86477,2.85389 0.83853,-0.64116 1.65858,-1.35474 2.44853,-2.1279 z m -2.82796,-2.46035 c 2.14062,-1.98696 3.95394,-4.36854 5.31523,-6.95146 1.39814,-2.65255 2.27213,-5.48896 2.27223,-8.15184 l -9e-4,0 0,-8.9e-4 0,-0.002 9e-4,0 c -3e-4,-4.35632 -1.76834,-8.30232 -4.62213,-11.159384 -3.07697,-3.080653 -7.11256,-4.619539 -11.14845,-4.618844 -4.03579,6.95e-4 -8.07208,1.541071 -11.15025,4.619142 -2.85746,2.857266 -4.6257,6.803656 -4.6258,11.159876 l 9e-4,0 0,7e-4 c 0,3.73234 1.70973,7.79386 4.17783,11.22285 0.91123,1.26584 1.93133,2.45886 3.05145,3.54511 2.15958,-0.98344 4.54673,-1.5066 6.8853,-1.63265 3.28209,-0.1767 6.83674,0.42224 9.84369,1.96888 z"
     id="_160227104-0"
     style="fill:#000000;fill-rule:nonzero" /><path
     d="m -48.256586,-1.974951 c 3.23829,3.235505 5.05361,7.02864 5.60359,10.98963 0.68546,4.93769 -0.65229,9.85213 -3.08185,14.10863 -2.0095,3.52097 -4.71996,6.6795 -7.96142,9.12147 -2.17012,-1.80478 -5.12741,-2.76161 -7.89299,-2.96682 -3.49734,-0.25935 -6.97302,0.60928 -9.85005,2.61113 -1.69652,-1.45356 -3.22259,-2.91627 -4.61219,-4.67387 -3.37069,-4.26315 -5.88477,-9.59676 -5.97109,-15.11055 -0.16915,-10.808059 8.90345,-19.866659 19.77488,-19.864772 5.06642,8.94e-4 10.13283,1.930238 13.99112,5.785152 z m -22.94522,28.95426 c -1.0941,-1.07413 -2.09264,-2.24649 -2.98818,-3.49067 -2.51578,-3.49525 -4.25848,-7.64378 -4.25848,-11.4676 l 0,-7e-4 8.9e-4,0 c 2e-4,-4.47333 1.81482,-8.52471 4.74737,-11.457067 3.16062,-3.160512 7.30427,-4.741613 11.44764,-4.741712 4.14336,-1.99e-4 8.28642,1.580306 11.44544,4.743004 2.92888,2.932155 4.74331,6.982745 4.7437,11.454985 l 9e-4,0 0,0.002 0,9e-4 -9e-4,0 c -2e-4,2.73569 -0.89246,5.63914 -2.3199,8.34731 -1.36119,2.58282 -3.16607,4.96411 -5.29596,6.96368 0.98692,0.54392 1.90908,1.19372 2.73559,1.95686 1.84323,-1.85694 3.51024,-4.03609 4.84432,-6.37347 2.38208,-4.17376 3.70036,-8.99225 3.03287,-13.82942 -0.53518,-3.87806 -2.31066,-7.592223 -5.48567,-10.764655 -3.77655,-3.773266 -8.73569,-5.661687 -13.69473,-5.662581 -10.64447,-0.0019 -19.53153,8.873056 -19.35552,19.457336 0.09,5.41545 2.56941,10.65221 5.87951,14.83878 0.51233,0.64802 1.05139,1.27696 1.61607,1.88187 0.88908,-0.73453 1.86795,-1.35126 2.90504,-1.85833 z m 19.96013,2.60627 c -3.3257,-3.06198 -8.2458,-4.24557 -12.64384,-4.01026 -3.52356,0.18862 -7.17455,1.29771 -9.93299,3.56696 0.75629,0.78707 1.55727,1.53114 2.40255,2.22007 2.86054,-1.93987 6.43416,-2.75773 9.86097,-2.50276 2.81018,0.20909 5.60616,1.15101 7.86477,2.85389 0.83853,-0.64116 1.65858,-1.35473 2.44854,-2.1279 z m -2.82797,-2.46035 c 2.14062,-1.98696 3.95395,-4.36854 5.31523,-6.95146 1.39814,-2.65255 2.27213,-5.48896 2.27223,-8.15184 l -9e-4,0 0,-8.9e-4 0,-0.002 9e-4,0 c -3e-4,-4.35632 -1.76834,-8.30232 -4.62212,-11.159382 -3.07698,-3.080653 -7.11257,-4.61954 -11.14846,-4.618844 -4.03579,6.95e-4 -8.07208,1.541071 -11.15025,4.619142 -2.85746,2.857264 -4.6257,6.803654 -4.62579,11.159884 l 8.9e-4,0 0,6.9e-4 c 0,3.73234 1.70973,7.79386 4.17783,11.22286 0.91123,1.26583 1.93133,2.45886 3.05145,3.54511 2.15958,-0.98345 4.54673,-1.50661 6.88531,-1.63266 3.28208,-0.1767 6.83673,0.42225 9.84368,1.96888 z"
     id="_158879856-9"
     style="fill:#cccccc;fill-rule:nonzero" /><path
     d="m -66.517016,34.932989 0.75112,0.99258 c 0.58395,0.77168 1.2707,1.33636 2.24461,1.54366 1.22889,0.26153 2.48658,-0.21286 3.21316,-1.20991 l -3.65497,-2.19515 -0.65079,1.11208 -2.18909,-1.28143 2.03761,-3.52654 2.21531,1.28113 -0.76453,1.30656 3.56836,2.00205 c 0.18643,-0.97133 -0.067,-1.99043 -0.67384,-2.77273 l -1e-4,9e-5 -0.0104,-0.0134 0,-3e-4 -0.004,-0.006 -1.9e-4,-3e-4 c -0.74109,-0.96686 -1.96223,-1.63206 -3.17512,-1.73297 l -0.39483,-0.033 c 0.60461,-0.18892 1.19969,-0.28865 1.85128,-0.23183 1.69989,0.14859 3.17461,1.28669 3.9007,2.79071 0.45274,0.93746 0.60153,2.01606 0.35202,3.03457 l 3.21564,1.80449 c 0.37834,0.23421 0.49326,0.71814 0.24881,1.09399 -0.22766,0.34964 -0.68039,0.47032 -1.04751,0.26481 l -3.02006,-1.81372 c -0.24504,0.35797 -0.55167,0.68625 -0.92008,0.97222 l -2.9e-4,2e-4 c -1.1081,0.84309 -2.57826,0.9753 -3.89703,0.6206 -1.29504,-0.34825 -2.52343,-1.15896 -3.22885,-2.31454 l -0.15992,0.12535 c -0.0225,0.19667 -0.24454,0.36364 -0.44102,0.30593 l -0.87627,1.2122 c -0.46872,0.32927 -1.07075,0.27951 -1.4321,-0.18555 -0.34735,-0.44697 -0.27335,-1.08952 0.19567,-1.42048 l 1.36069,-0.52515 c -0.0787,-0.21991 0.12406,-0.42791 0.32719,-0.42334 l 1.05923,-0.77724 z"
     id="path35-0"
     style="fill:#7f7f7f;fill-rule:nonzero" /><path
     d="m -54.758586,37.916799 -3.17938,-1.78363 c -0.10797,0.38271 -0.27126,0.75052 -0.48919,1.093 l 3.01132,1.80827 c 0.31269,0.17471 0.70086,0.0566 0.87965,-0.24892 0.1772,-0.30325 0.074,-0.68477 -0.2224,-0.86872 z m -5.01844,-2.81545 -3.60083,-2.02023 -0.51025,0.86515 3.65994,2.19822 c 0.21216,-0.31963 0.36324,-0.67334 0.45114,-1.04314 z m -2.96513,-3.40128 -1.97275,-1.14088 -1.89816,3.28527 1.94852,1.14058 1.92239,-3.28497 z m -4.50809,5.24997 -0.56528,-0.70105 -1.38195,0.53339 c -0.39631,0.28467 -0.44528,0.83524 -0.15217,1.2115 0.30097,0.38658 0.83575,0.45949 1.22829,0.16597 l 0.87111,-1.20981 z m 0.51958,-0.36552 -0.67444,-0.82055 0.85929,-0.63659 0.62328,0.82372 -0.80813,0.63342 z m -0.16151,0.0243 -0.56636,-0.68765 c -0.14502,-0.1762 -0.39314,0.077 -0.28021,0.22578 l 0.5326,0.70214 c 0.14412,0.18992 0.47051,-0.0581 0.31397,-0.24027 z m 3.69103,-6.26232 c 1.80409,0.33533 3.48243,1.76654 3.64255,3.67135 0.1318,1.57385 -0.81906,3.06029 -2.30977,3.51979 -1.47989,0.4567 -3.1036,-0.21485 -3.97242,-1.47284 l -0.59935,0.47092 c 0.96974,1.61666 3.03536,2.59245 4.90054,2.43005 2.44565,-0.21345 4.09936,-2.57696 3.48998,-5.03572 -0.55365,-2.23637 -2.79786,-3.97431 -5.15153,-3.58355 z"
     id="path37-4"
     style="fill:#cccccc;fill-rule:nonzero" /><path
     d="m -56.762026,26.021299 -4e-4,-10e-5 -0.91977,-0.24862 c -0.0188,-0.005 -0.0368,-0.011 -0.0508,-0.0264 -0.0298,-0.0332 -0.065,-0.074 -0.10072,-0.11562 -0.13171,-0.15306 -0.2803,-0.32579 -0.43674,-0.41181 -0.0632,-0.0354 -0.1336,-0.0194 -0.1924,0.0202 -0.0514,0.0348 -0.0938,0.0842 -0.12346,0.14144 -0.0183,0.0479 -0.057,0.0692 -0.0954,0.0601 l -0.97043,-0.2361 1e-4,-3e-4 c -0.038,-0.009 -0.0636,-0.0461 -0.0575,-0.0855 l 0.0642,-0.4137 c 0.0283,-0.23293 0.0475,-0.37338 0.0816,-0.51313 0.0358,-0.14671 0.0876,-0.28924 0.1776,-0.49505 l 10e-5,0 c 0.0801,-0.20104 0.12346,-0.40218 0.11333,-0.59756 -0.009,-0.17472 -0.0614,-0.34635 -0.16935,-0.51094 -0.96696,0.46118 -2.44327,0.547 -3.71645,0.46475 -0.57342,-0.037 -1.13572,-0.1177 -1.6996,-0.22467 -0.52833,-0.10043 -1.05606,-0.20104 -1.59262,-0.21018 -0.0465,0.17223 -0.20184,0.82054 -0.32481,1.345 -0.0453,0.19488 -0.0908,0.38976 -0.13578,0.58474 -0.0645,0.26828 -0.0459,0.4868 -0.027,0.71029 0.005,0.0592 0.0102,0.119 0.0144,0.18684 0.005,0.0367 -0.0184,0.0727 -0.0551,0.0831 l -0.50588,0.14501 c -0.0226,0.007 -0.0472,0.016 -0.0711,0.0112 -0.12486,-0.0255 -0.24028,-0.0299 -0.34547,-0.002 -0.1029,0.0271 -0.19895,0.0864 -0.28825,0.18773 l -2e-4,-2e-4 c -0.008,0.01 -0.0194,0.0173 -0.0321,0.0218 l -1.28848,0.45144 -10e-5,-2e-4 -9.9e-4,5e-4 c -0.0399,0.0132 -0.0831,-0.009 -0.0964,-0.0485 -0.0934,-0.29401 -0.24981,-0.64047 -0.10876,-0.94392 0.0704,-0.15137 0.2065,-0.26937 0.42164,-0.37764 0.15188,-0.0913 0.27008,-0.17472 0.35808,-0.27842 0.0865,-0.10171 0.14691,-0.22656 0.18634,-0.40327 0.0668,-0.29033 0.10429,-0.58454 0.12485,-0.88014 0.0189,-0.27037 0.0239,-0.54442 0.0246,-0.81787 l -0.13439,10e-4 c -0.0417,-0.005 -0.0714,-0.0435 -0.0662,-0.0852 0.12019,-0.92881 0.24455,-1.85842 0.37944,-2.77641 0.1329,-0.90488 0.27831,-1.81303 0.4429,-2.72238 -0.1918,-0.0884 -0.3545,-0.1913 -0.50359,-0.31506 -0.14522,-0.12059 -0.27683,-0.26024 -0.41033,-0.42423 -0.20034,0.1621 -0.39939,0.34248 -0.59755,0.52236 -0.3104,0.2817 -0.6204,0.56279 -0.93974,0.77744 -0.10956,0.0716 -0.24097,0.14581 -0.37814,0.12456 -0.053,-0.008 -0.14304,-0.0427 -0.16548,-0.0986 l -0.73384,-1.84888 2e-4,-10e-5 c -0.0133,-0.0333 -0.002,-0.0723 0.0297,-0.0924 l 3.02771,-1.92755 -0.006,-0.0486 c -0.0108,-0.0985 -0.026,-0.23649 -0.0487,-0.26828 -0.0111,-0.0115 -0.0185,-0.0251 -0.0211,-0.0409 -0.009,-0.0566 -0.0165,-0.0889 -0.0251,-0.0998 l -5.9e-4,-5.9e-4 -3e-4,-2e-4 c -0.002,-6e-4 -0.0103,0.006 -0.0314,0.0109 l 0,-10e-5 c -0.006,0.001 -0.0123,0.002 -0.0186,0.002 -0.10837,0 -0.1922,-0.0415 -0.25667,-0.10737 -0.0589,-0.0602 -0.10002,-0.14075 -0.12912,-0.22865 -0.0413,-0.12695 -0.13479,-0.3401 -0.24177,-0.58455 -0.24653,-0.56349 -0.56458,-1.29027 -0.50746,-1.5657 l 0.002,-0.008 c 0.0746,-0.18823 0.0675,-0.47936 0.0599,-0.78956 -0.0117,-0.47816 0.0122,-0.88262 0.20273,-1.30427 0.20779,-0.45919 0.64205,-1.3158 1.04761,-2.07119 0.21951,-0.40873 0.4575,-0.80952 0.66291,-1.2255 0.29967,-0.606 0.60153,-1.21577 0.99268,-1.77569 0.40248,-0.57342 1.1982,-0.75072 1.86637,-0.899409 0.0774,-0.01718 0.15456,-0.03437 0.24813,-0.05642 0.25328,-0.253584 0.59209,-0.598251 0.87865,-0.902095 0.0563,-0.0597 0.11204,-0.119392 0.16568,-0.177499 0.043,-0.04668 0.0854,-0.09267 0.12605,-0.137966 l -0.0209,-0.207894 c -0.14035,-0.33235 -0.2805,-0.614839 -0.39116,-0.795914 -0.0911,-0.05989 -0.14045,-0.117604 -0.18485,-0.225176 -0.0398,-0.09635 -0.0787,-0.237989 -0.12972,-0.442505 l 1e-4,0 c -0.0677,-0.257955 -0.0734,-0.443896 0.0185,-0.624077 0.0885,-0.173725 0.26639,-0.333046 0.56696,-0.542131 l 2e-4,1.98e-4 c 0.0928,-0.06963 0.14472,-0.116015 0.18634,-0.174122 0.042,-0.0588 0.0784,-0.136575 0.13767,-0.266993 0.0529,-0.249909 0.14581,-0.434956 0.30672,-0.500413 0.16151,-0.06576 0.37824,-0.0053 0.67255,0.239082 l -10e-5,9.9e-5 c 0.057,0.04539 0.10876,0.07976 0.1916,0.114028 0.0872,0.03606 0.21028,0.07291 0.40894,0.122571 l -1e-4,1.99e-4 0.003,6.95e-4 c 0.21713,0.06387 0.35837,0.108863 0.46565,0.154355 l 0,10e-5 c 0.11055,0.04688 0.18514,0.09416 0.2656,0.16101 l 3e-4,1.99e-4 c 0.16766,0.128927 0.29748,0.246035 0.39234,0.353905 0.0991,0.112737 0.16141,0.217329 0.18962,0.31626 l -1e-4,0 c 0.0213,0.06367 0.0363,0.09972 0.0529,0.118597 0.0177,0.02006 0.16032,0.07817 0.18247,0.09317 0.14402,0.09794 0.21772,0.233321 0.12922,0.397907 -0.062,0.115419 -0.18266,0.212363 -0.30702,0.252293 0.0645,0.161308 0.13101,0.320531 0.19846,0.480448 0.11174,0.264709 0.11482,0.330464 0.0156,0.481045 -0.004,0.0064 -0.008,0.01222 -0.0135,0.01768 -0.0531,0.05314 -0.0532,0.121676 -0.0532,0.349534 0,0.09963 -1e-4,0.187035 -0.004,0.255869 -0.004,0.07261 -0.0165,0.126245 -0.0446,0.153561 -0.002,0.01083 -0.002,0.06556 -0.002,0.120385 0,0.118299 -0.0342,0.182664 -0.083,0.276231 -0.007,0.01351 -0.0116,0.0294 -0.0116,0.05493 0,0.122173 0.0743,0.232526 -0.0129,0.352415 -0.0222,0.0304 -0.0506,0.05384 -0.0867,0.0738 0.41479,0.408938 0.51422,0.449958 0.99735,0.647418 l 0.002,5e-4 0.0308,0.0126 c 0.21643,0.0816 0.41737,0.21564 0.56378,0.39215 l -2e-4,10e-5 c 0.0297,0.0358 0.0567,0.0723 0.0804,0.10926 0.0234,0.0367 0.0455,0.0758 0.0649,0.11721 l 9.9e-4,0.002 c 0.24723,0.48711 0.46079,0.96309 0.62786,1.45734 0.15584,0.46138 0.27146,0.93825 0.33602,1.45396 l 3.18058,-1.73704 10e-5,2.9e-4 0.002,-0.002 4.68301,-2.346226 c 0.0177,-0.0089 0.0386,-0.01113 0.0588,-0.0043 0.18177,0.06148 0.26629,0.260636 0.24504,0.439226 l -2e-4,0.002 -10e-5,5.9e-4 -3e-4,0.002 -10e-5,6e-4 c -0.002,0.0241 -0.0151,0.0469 -0.0375,0.0601 l -4.13284,2.44396 0.0236,0.32014 c -0.33155,0.25626 -0.66778,0.45958 -0.98076,0.66301 -0.29749,0.19319 -0.59597,0.37695 -0.90309,0.54809 0.11671,1.00838 -0.0959,1.86955 -0.54173,2.70788 -0.444,0.83455 -1.11903,1.64467 -1.93074,2.5557 0.21078,0.45919 0.41132,0.92435 0.6354,1.37708 0.6651,1.33715 1.23356,2.55988 1.62501,3.85988 0.39135,1.29971 0.6052,2.6755 0.55971,4.31381 l -2e-4,0.007 c -0.002,0.0421 -0.0377,0.0746 -0.0799,0.0727 -0.28735,-0.0143 -0.56001,-0.0217 -0.83008,-0.01 -0.2518,0.0114 -0.5024,0.0404 -0.76284,0.097 l -0.0933,0.69927 -3e-4,0.002 -0.0188,0.17293 c -0.0427,0.37665 -0.0903,0.7975 0.0839,1.13243 0.0212,0.0408 0.0464,0.0804 0.0721,0.1186 0.10369,0.15287 0.24464,0.281 0.40207,0.39056 0.15645,0.10886 0.32957,0.20004 0.49893,0.27891 0.0793,0.0367 0.15912,0.071 0.24087,0.1029 l 0,10e-5 c 0.0142,0.005 0.0288,0.0112 0.0436,0.0169 0.23789,0.0918 0.53866,0.2067 0.59408,0.42532 0.0771,0.30414 -0.0739,0.53031 -0.2654,0.6656 -0.0661,0.0466 -0.13936,0.0837 -0.21574,0.11005 -0.0235,0.008 -0.0453,0.0162 -0.0708,0.008 l -0.90518,-0.27842 z m -9.17134,-17.62315 -0.24712,-0.93348 -0.029,0.0783 c -0.10042,0.27574 -0.19031,0.52247 -0.38966,0.71774 -0.0597,0.0843 -0.12515,0.19787 -0.17561,0.30802 -0.009,0.0194 -0.0182,0.0407 -0.0279,0.0648 -0.0338,0.083 -0.0561,0.15833 -0.0562,0.2078 l 3e-4,0 0,6.9e-4 c 0,0.13906 -0.13181,0.36225 -0.23849,0.54303 l -10e-5,-10e-5 c -0.0355,0.0601 -0.0679,0.11542 -0.09,0.15743 -0.007,0.27395 2e-4,0.5181 0.0326,0.75906 0.0327,0.24326 0.0916,0.48492 0.18803,0.75361 l 0.002,0.006 c 0.089,0.24177 0.14651,0.40785 0.17869,0.52694 0.0352,0.13042 0.0413,0.21137 0.0255,0.27484 l -10e-5,0 -0.002,0.005 c -0.0162,0.0488 -0.0211,0.11234 -0.0257,0.17581 -0.006,0.0806 -0.012,0.1615 -0.0413,0.23501 0.0215,0.0748 0.0515,0.1319 0.096,0.1765 l -1e-4,10e-5 1e-4,2e-4 c 0.0406,0.0407 0.0956,0.0732 0.16786,0.10201 0.0262,-0.037 0.0621,-0.0792 0.10171,-0.12595 0.0932,-0.10976 0.21048,-0.24802 0.23462,-0.34765 l 0,-1.9e-4 7.9e-4,-0.004 2e-4,0 4e-4,-0.002 c 0.0104,-0.042 0.01,-0.12923 9.9e-4,-0.25707 -0.009,-0.13349 -0.0282,-0.3093 -0.0533,-0.52306 l 1e-4,0 -4e-4,-0.002 c -0.0132,-0.15863 -0.0129,-0.27891 0.0109,-0.38827 0.0242,-0.11095 0.0721,-0.2075 0.15336,-0.31646 0.0942,-0.14115 0.12237,-0.27882 0.0842,-0.38132 l -4.9e-4,-9e-4 c -0.007,-0.0188 -0.0164,-0.0363 -0.0274,-0.0519 -0.0113,-0.0159 -0.0251,-0.0309 -0.0413,-0.0444 l 1e-4,-1.9e-4 -7e-4,-4e-4 -6.9e-4,-6e-4 2e-4,-2e-4 c -0.004,-0.003 -0.008,-0.008 -0.0115,-0.012 -0.11056,-0.14741 -0.13916,-0.38083 -0.13976,-0.6219 -5.9e-4,-0.22706 0.0234,-0.46376 0.0235,-0.63281 l -3e-4,0 0,-0.002 5e-4,0 c -10e-5,-0.0152 0.004,-0.0305 0.0136,-0.044 l 0.28219,-0.3998 z m 9.24256,-0.0881 c 0.023,-0.17492 0.0235,-0.35132 -0.005,-0.53101 l -0.85302,0.52306 0.0367,0.0884 c 0.0638,0.0525 0.11303,0.12118 0.15127,0.19488 0.0398,0.0771 0.0677,0.16051 0.087,0.23799 0.0147,0.0588 0.0221,0.12436 0.005,0.24405 -0.0163,0.11055 -0.0548,0.27156 -0.13141,0.52693 -0.0898,0.39721 -0.14869,0.61047 -0.22974,0.7389 -0.0911,0.14422 -0.19787,0.18058 -0.38182,0.22299 l 0,-2e-4 -0.003,8e-4 c -0.21505,0.0402 -0.35152,0.0531 -0.47479,0.01 -0.12247,-0.0432 -0.21892,-0.13747 -0.35202,-0.3098 -0.15524,-0.15565 -0.27841,-0.33504 -0.40118,-0.51393 -0.0628,-0.0917 -0.12555,-0.18395 -0.19081,-0.26967 l -0.16667,0.10608 c 0.14045,0.36672 0.29629,0.72698 0.45105,1.08416 0.12455,0.28726 0.24861,0.57313 0.35907,0.84806 0.58563,-0.25477 1.18359,-1.06151 1.57166,-1.77955 0.0794,-0.14671 0.14959,-0.28915 0.20869,-0.42135 0.0593,-0.1329 0.10807,-0.25627 0.14412,-0.36453 l 3e-4,-9e-4 3e-4,-8.9e-4 0.002,-0.004 c 0.084,-0.21007 0.14531,-0.41926 0.17322,-0.62964 z"
     id="path39-0"
     style="fill:#333333;fill-opacity:1;fill-rule:nonzero" /><path
     d="m -57.078876,9.796089 c 0.0223,0.0333 0.0285,0.0767 0.0125,0.12635 -0.26381,0.66083 -0.84756,1.44522 -1.4925,2.16098 -1.49896,1.66364 -3.37178,3.03625 -5.36251,4.0489 -0.87975,0.44757 -1.98636,0.74684 -2.83661,0.66589 -0.99149,0.0331 -1.40737,-0.25507 -2.16981,-0.99238 -0.0505,-0.0757 -0.0505,-0.10092 -0.0252,-0.20184 0.0757,-0.15137 0.10092,-0.1766 0.20183,-0.10092 0.0757,0.0757 0.15138,0.0757 0.65596,0.0757 0.547,0 0.90438,-0.0695 1.21806,-0.0545 0.32321,0.0154 0.66997,0.12883 0.97689,0.23114 0.15505,0.0775 0.46962,0.25229 0.6055,0.25229 0.45314,-0.0144 1.02427,-0.24822 1.57902,-0.55832 1.28927,-0.72082 3.70562,-2.49363 4.87332,-3.76204 0.0115,9.9e-4 0.0233,10e-5 0.0351,-0.004 0.64802,-0.23362 1.30676,-1.10701 1.72364,-1.87839 l 0.005,-0.009 z m -11.53246,14.57259 c 0.0185,-0.015 0.0388,-0.0276 0.062,-0.0354 0.0757,-0.0505 0.10091,-0.0757 0.0757,-0.10092 -0.0394,-0.25219 0.0195,-0.46386 0.22706,-0.35321 0.12614,0.0757 0.15137,0.0757 0.20183,0 0.0505,-0.0505 0.0757,-0.10091 0.0252,-0.15137 -0.0757,-0.15138 -0.0757,-0.45413 0.0252,-0.40367 0.0252,0.0252 0.10936,0.18922 0.15138,0.25229 0.0757,0.12615 0.0757,0.15138 0.0252,0.20184 -0.0505,0.0505 -0.0505,0.10091 0,0.25229 0.0473,0.11035 0.0551,0.1617 0.0176,0.19677 -0.15247,0.14303 -0.17303,-0.0315 -0.33176,0.0511 -0.0429,0.0222 -0.0552,0.0857 0.0114,0.23153 0.0505,0.10092 0.002,0.12615 -0.0992,0.20184 l 0.074,0.0757 c 0.20183,0 0.25229,0.12614 0.15137,0.37844 -0.0757,0.20183 -0.1766,0.22706 -0.50458,0.20183 -0.22707,-0.0252 -0.32798,0.0252 -0.30276,0.12615 0.0252,0.0757 0.0505,0.0757 0.15138,0.0504 0.12615,-0.0252 0.12615,0 0.15138,0.0757 0.0141,0.0848 -0.0111,0.16975 -0.0584,0.22796 l -0.60977,0.21365 c -0.0306,-0.20133 -0.30583,-0.50617 -0.341,-0.59298 0,-0.064 0.14433,-0.22359 0.3413,-0.39344 0.14213,-0.0882 0.25596,-0.17392 0.34685,-0.281 0.0951,-0.11204 0.16329,-0.24524 0.20859,-0.42552 z m 2.45965,-5.60964 c -0.34476,1.51296 -0.61454,2.03702 -1.38433,3.23928 -0.38261,0.28467 -0.87309,0.20899 -0.87309,0.18376 -0.011,-0.311 0.25726,-1.46618 0.32867,-1.50303 0.12784,-0.5024 0.19449,-0.76383 0.30276,-1.18896 0.15048,-0.5909 0.22865,-1.20683 0.53349,-1.69423 1.54971,-0.51631 1.20077,0.55405 1.0925,0.96318 z m -5.19256,-3.13399 c -0.0407,0.046 0.0419,0.011 0.34765,-0.17243 0.73671,-0.45175 1.595,-0.9908 2.39678,-1.4633 0.0757,0 0.1766,0.27752 0.20183,0.47935 0.0252,0.10092 0,0.12615 -0.12614,0.17661 -0.2069,0.1773 -0.39006,0.43635 -0.60819,0.63639 -0.15813,0.14502 -0.34784,0.31567 -0.41509,0.55127 -0.17005,0.59527 -0.65785,1.06251 -1.14644,1.41095 -0.10092,0 -0.12615,-0.10091 -0.17661,-0.1766 -0.18167,-0.42393 -0.38936,-0.91233 -0.47935,-1.36238 -0.006,-0.0287 -0.01,-0.0506 -0.0148,-0.0669 l 0.0204,-0.013 z m 5.73976,0.0276 c 0.41201,0.28934 1.16978,-0.0646 1.83409,-0.41449 0.79581,-0.41917 0.95464,-0.90786 0.3536,-1.84134 l -0.46982,-0.0353 c -0.25775,0.96983 -1.37589,1.1666 -1.49488,0.88709 l -0.22299,1.404 z m 3.41638,-4.0934 c 0.25299,1.23544 -0.16717,1.8037 0.10876,2.56316 l 0.40198,-0.32391 c 0.01,-1.02556 -0.0462,-2.28573 -0.51074,-2.23925 z m 2.34632,-0.33404 c 0.15605,0.35609 0.0993,0.43198 0.4883,0.41122 0.43178,-0.023 0.26034,-0.0721 0.0388,-0.37884 -0.17323,-0.24017 -0.20075,-0.34953 -0.4883,-0.41121 -0.38102,-0.0812 -0.15843,0.10628 -0.0388,0.37883 z m 2.29626,3.14591 c 0.40625,0.96984 0.86634,2.08917 1.20704,3.0746 0.0484,0.24206 0.20183,0.59607 0.20183,0.83256 0.0252,0.12615 0.0252,0.15138 -0.0252,0.15138 -0.0505,0 -0.10092,-0.12615 -0.15138,-0.25229 -0.11621,-0.55773 -0.80584,-1.08009 -0.95871,-1.53899 -0.13399,0.0968 0.32947,0.92594 0.45016,1.1674 -0.0602,0.86445 -0.42314,2.50972 0.13012,3.3991 -0.5624,0.40575 -2.46552,0.83137 -2.79251,0.78737 l 0.11691,-0.30394 c 0.2656,0 0.67434,-0.13618 0.73642,-0.16548 0.80664,-0.38073 0.56726,-2.65831 -0.0501,-3.88819 -0.31944,-0.63679 -0.95047,-1.1229 -1.40917,-1.66652 -0.50856,-0.60253 -0.18524,-1.36626 -0.35817,-1.77648 0.11015,-0.0568 0.50031,-0.44042 0.64891,-0.56011 0.091,0 0.5908,0.38539 0.71088,0.66053 0.0981,0 0.27981,-0.10002 0.27981,-0.19498 -10e-5,-0.3998 0.22587,-0.76403 0.78042,-0.7242 0.0821,0.17859 0.16548,0.35629 0.25279,0.5321 l 10e-5,-1e-4 5e-4,0.002 c 0.0778,0.15624 0.15435,0.31119 0.22934,0.46465 z m -4.26772,3.09983 c 0.31428,0.4576 0.83297,1.76247 1.15797,2.46035 0.2662,0.57282 0.47995,0.97788 0.83942,1.52706 -0.31587,0.18813 -0.87905,0.42523 -1.30944,0.50479 0.15545,-0.52932 -0.0329,-1.03311 -0.19756,-1.54872 -0.32213,-1.00887 -0.59051,-1.86856 -0.49039,-2.94348 z m 5.29815,7.54355 c 0.15138,0.10092 0.75688,0.35321 0.80734,0.35321 0.13975,0 0.17044,0.33583 0,0.37844 -0.0824,0.0854 -0.61405,-0.0489 -0.65596,-0.20184 -0.0252,-0.0757 -0.0757,-0.12614 -0.15138,-0.15137 -0.30464,-0.11979 -0.61176,-0.34 -0.80734,-0.63073 -0.12972,-0.11661 -0.32827,-0.58256 -0.27414,-0.64246 0,-0.0565 0.0865,-0.12217 0.2208,-0.0761 0.0308,0.10668 0.0762,0.20968 0.14105,0.30692 l 1e-4,0 c 0.18902,0.30136 0.43148,0.47221 0.71953,0.66391 z m -7.41522,-2.70281 c 0.34457,-0.0969 0.90329,-0.24017 1.22918,-0.43168 0.18902,0.25786 0.41331,0.31984 0.64295,0.3255 -0.6202,0.18187 -1.42247,0.30205 -1.87213,0.10618 z m 14.00711,-19.25142 -4.33129,2.48746 0.0934,0.19727 c -0.18008,0.25765 -0.51005,0.4575 -0.9897,0.59984 l -0.42671,0.25865 c -0.19985,-0.007 -0.35639,0.0517 -0.41768,0.25319 l -0.30742,0.18653 0.1338,0.17085 c 0.10101,0.36642 -0.005,1.36516 -0.24534,1.55289 -0.0757,0 -0.0757,-0.0505 -0.0757,-0.22707 0.1188,-0.25129 0.27921,-0.71794 -0.0657,-1.15826 -0.0533,0.001 -1.00639,0.48254 -1.34966,0.51512 0.002,0.18663 0.058,0.35758 -0.12367,0.46654 -0.28954,0.0964 -0.0597,0.32798 -0.47935,0.32798 -0.0799,0 -0.24177,-0.0688 -0.37179,-0.0786 -0.23143,-0.0175 -0.34099,0.11582 -0.48601,-0.12326 -0.0718,-0.0735 -0.19806,-0.0654 -0.37834,0.0247 l -5.50067,2.92292 0.0533,0.17372 5.05548,-2.72088 c 0.20224,-0.10847 0.26809,0.0619 0.0729,0.1912 l -0.69033,0.4578 c 0.0277,0.16151 -0.12614,0.21197 -0.27752,0.13628 -0.12287,-0.0409 -0.30374,0.022 -0.25229,0.17661 0.0252,0.0252 0.0252,0.10091 0.0252,0.12614 -0.37228,0.34139 -2.2909,1.59571 -2.46174,1.7881 -0.21435,0.12059 -0.35907,0.52475 -0.48214,0.86118 -0.12714,0.34744 -0.39831,0.82332 -0.74983,0.92017 -0.17124,0.0473 -0.24722,0.0588 -0.39334,-0.0463 -0.24732,-0.17779 0.0447,-0.34526 0.20184,-0.31914 0.35082,0 0.63907,-0.17154 0.7087,-0.52713 0.0191,-0.0969 -0.002,-0.17134 -0.002,-0.35589 0,-0.23372 -0.46009,-0.17065 -0.55505,-0.0757 -0.0505,0.0505 -0.25229,0.0757 -0.25229,0 l 0.10092,-0.17661 c 0.12614,-0.0757 0.12614,-0.10091 0.0252,-0.10091 -0.29163,0.0513 -0.85839,0.57133 -1.05963,0.75688 -0.0485,0 -0.17661,0.23163 -0.17661,0.27752 0,0.26302 0.009,0.46714 0.22707,0.63073 0.15137,0.10092 0.1766,0.15137 0.0252,0.20183 -0.12614,0.0505 -0.15137,0.0252 -0.20183,-0.0252 -0.10092,-0.1766 -0.1766,-0.10091 -0.15138,0.12615 0,0.0757 -0.0252,0.10092 -0.15137,0.15138 -0.0757,0.0252 -0.12615,0.0757 -0.12615,0.10091 0,0.10092 -0.15137,0.15138 -0.30275,0.10092 -0.0791,-0.067 -0.26044,-0.0383 -0.30275,0.0252 -0.29322,0.25746 -0.46317,0.27216 -0.65596,0.10092 -0.19439,-0.17105 -0.15704,-0.8138 -0.17661,-1.00917 0.22548,0.13657 0.39553,-0.11264 0.38043,-0.5176 0.0972,-0.0523 0.46128,-0.33196 0.68119,-0.51869 0.0555,-0.0472 0.10042,-0.0843 0.13608,-0.11731 l -0.004,0.008 1e-4,10e-5 -4e-4,7.9e-4 -4e-4,8e-4 c -0.008,0.0157 -0.0105,0.0344 -0.006,0.0526 0.0286,0.11463 0.0727,0.20174 0.14303,0.27206 l 2e-4,-2e-4 c 0.0686,0.0686 0.16002,0.1185 0.28438,0.16002 l 7.9e-4,4e-4 c 0.0303,0.0101 0.0629,2.9e-4 0.0824,-0.0225 0.0808,-0.0136 0.27216,-0.23203 0.34547,-0.40307 0.10568,-0.21137 0.18276,-0.43655 0.31695,-0.57074 0.0203,-0.12128 -0.1325,-0.18823 -0.13548,-0.3544 -9.9e-4,-0.0866 0.0571,-0.17472 0.061,-0.26283 0.004,-0.0877 -0.0468,-0.176 -0.0389,-0.26212 0.0319,-0.34914 0.21465,-0.64216 0.60491,-0.69361 0.19955,-0.0262 0.46723,-0.0117 0.52872,0.0498 0.10936,0.10936 -0.39215,0.28954 -0.44658,0.3104 l 0.39115,0.11839 3.41072,-1.85177 c -0.0252,-0.0252 -0.27742,0.0101 -0.75668,0.0354 -0.6055,0 -0.73165,0 -0.80733,-0.0505 -0.12615,-0.10092 -0.35321,0 -0.40367,0.15137 0,0.0757 -0.0757,0.20184 -0.17661,0.30275 -0.16498,0.16499 -0.10975,0.16846 -0.27752,0.2523 -0.11363,0.11363 -0.34198,-0.0252 -0.47935,-0.0252 -0.0505,0 -0.0757,-0.0252 -0.0757,-0.12615 l 0.006,-0.0867 c -0.20909,-0.0594 -0.35242,-0.18962 -0.62746,-0.1781 l -0.0288,0.079 -0.66182,-0.11691 c 0,-0.17909 -0.005,-0.27852 0.15137,-0.40367 0.35003,-0.31358 0.75847,-0.37665 1.23624,-0.46048 l -0.0145,-0.0554 c -0.41499,0.0247 -0.76899,0.11711 -1.14902,0.28636 l -0.0556,-0.13508 c 0.30285,-0.16757 0.65179,-0.22438 1.01731,-0.24087 0.32798,-0.0252 0.68288,-0.0505 0.80734,-0.10092 0.10092,-0.0252 0.23243,-0.0314 0.25766,-0.006 0.1622,0.081 0.37307,0.11979 0.37307,0.35937 0,0.12615 0.052,0.14124 0.17661,0.15138 0.89603,0 1.95606,0.0291 2.80035,-0.30276 0.10091,-0.0757 0.12614,-0.0252 0.0504,0.0505 -0.062,0.062 -0.27752,0.17661 -0.22706,0.22707 0.0505,0.0505 0.4289,-0.12615 0.55504,-0.27753 0.0757,-0.0757 0.22707,-0.1766 0.32799,-0.25229 0.16359,-0.0862 0.43505,-0.27196 0.22706,-0.45412 -0.0505,-0.0505 -0.0757,-0.0757 -0.0505,-0.17661 0.0505,-0.10092 0.0252,-0.15138 -0.0757,-0.12615 -0.0505,0 -0.0757,0 -0.0757,-0.0504 0,-0.10092 0.30276,-0.37844 0.55505,-0.45413 0.0757,-0.0252 0.1766,-0.10092 0.20183,-0.15138 l 0.0757,-0.0757 0.0252,0.10092 c 0.0505,0.10092 0.10092,0.15138 0.32798,0.20184 0.0402,0.0134 0.0717,0.0198 0.0951,0.0161 0.0116,0.0804 0.0217,0.1618 0.0308,0.24424 l 2e-4,0 c 8.9e-4,0.009 0.004,0.0176 0.008,0.0258 -0.19071,0.0923 -0.22925,0.0898 -0.41121,0.067 -0.31994,-0.0532 -0.51909,-0.10579 -0.68119,0.0757 l 0.27752,0 c 0.15137,0 0.32798,0.0252 0.40367,0.0505 0.0757,0.0505 0.24504,0.0592 0.34596,0.0592 l 1.1955,-0.62259 1.96968,-1.23255 0.28447,-0.15535 4.64914,-2.32924 c 0.0613,0.0324 0.0987,0.0969 0.11204,0.16707 10e-4,0.007 0.002,0.0145 0.003,0.0215 z m -7.51574,5.73876 c -0.0697,0.33672 -0.18981,0.70394 -0.33761,0.97709 0,0.0505 -0.15138,0.27752 -0.27752,0.4289 -0.0505,0.0252 -0.12615,0.0505 -0.22707,0.0757 -0.10092,0 -0.15137,-0.0252 -0.27752,-0.15137 -0.0587,-0.0704 -0.28189,-0.29073 -0.30275,-0.35321 -0.0252,-0.0757 -0.0252,-0.10092 0,-0.10092 0.0252,0 0.0252,0 0.0757,0.0252 0.10797,0.1042 0.22905,0.21395 0.33106,0.30593 0.0757,0.10092 0.19875,0.0725 0.29967,-0.10409 0.1035,-0.1035 0.13707,-0.24882 0.20183,-0.37844 0.0974,-0.28507 0.31646,-0.64216 0.41172,-0.94173 0.0168,0.023 0.0316,0.0478 0.0451,0.0739 0.0234,0.0454 0.0425,0.0945 0.0574,0.14303 z m -10.02049,1.05278 c 0.047,0.29719 0.0604,0.69291 0.17154,0.95861 0.11909,0.29788 0.24504,0.50071 0.31288,0.88223 -0.15197,0.23282 -0.28407,0.43337 -0.48948,0.6063 -0.15784,-0.0263 -0.64375,0.0119 -0.63074,0.0252 -0.0264,-0.0589 -0.1323,-0.27465 -0.18187,-0.35242 0.0698,-0.0455 0.19359,-0.0565 0.2671,-0.045 -0.0205,-0.28835 -0.20154,-0.49635 -0.33752,-0.61176 -0.27534,0.10042 -0.43923,0.27007 -0.54094,0.42194 -0.17104,-0.24147 -0.54253,-0.6651 -0.58494,-1.18349 0.43704,-0.0839 0.90865,-0.16598 1.35294,-0.32321 0.0965,-0.0483 0.13936,-0.23958 0.17353,-0.33782 0.17134,0.0425 0.34099,-0.0102 0.4875,-0.0406 z m 9.27275,-3.59527 c -0.0749,0.13449 -0.17372,0.0567 -0.29629,-0.16389 -0.18207,-0.31348 -0.30921,-0.40357 -0.45274,-0.51383 0.0252,-0.0252 -9.9e-4,-0.16736 -9.9e-4,-0.29351 0.002,-0.13538 0.13002,-0.66252 0.12614,-0.73165 -0.0787,-0.39711 -0.47399,0.66589 -0.46594,0.86991 -0.17661,-0.0757 -0.26272,-0.16101 -0.54323,-0.0373 -0.36393,0.13766 -0.66927,0.41846 -0.98384,0.57222 -0.33483,0.1636 -0.68129,0.22697 -0.97282,0.41092 -0.12366,0.0877 -0.30463,0.26422 -0.27305,0.46357 l -0.14184,-0.0465 c 0.0254,-0.33364 -0.20312,-1.02506 -0.41509,-1.37539 -0.0331,-0.0441 -0.0882,-0.0544 -0.14393,-0.0479 -0.14223,0.0168 -0.55156,0.2813 -0.84895,0.33265 0.11423,0.13489 0.38033,0.62338 0.37317,0.84667 0.10936,0.10936 -0.53925,0.369 -0.54729,0.61693 -0.28974,-0.16419 -0.932,-0.49168 -1.14257,-1.79843 -0.12585,-0.16519 -0.24643,-0.33017 -0.35629,-0.49476 -0.27246,0.15148 -0.68328,0.98077 -1.05655,1.12549 -0.22706,-0.0252 -0.25229,0 -0.25229,0.15137 0.0455,0.10837 -0.10906,0.33941 -0.20184,0.45413 -0.0252,0.0757 -0.0505,0.0757 -0.10091,0.0252 -0.0757,-0.0757 -0.2523,-0.0505 -0.32798,0.0252 -0.10092,0.10092 -0.12615,0.27752 -0.0757,0.35321 0.0757,0.10092 -0.0505,0.25229 -0.25229,0.27752 -0.22707,0.0505 -0.4289,0.15138 -0.40367,0.22706 0,0.17661 -0.0252,0.2523 -0.17661,0.35321 -0.0943,0.0471 -0.19389,0.18058 -0.30275,0.12615 -0.10092,-0.0252 -0.12615,0.0252 -0.0505,0.17661 -0.003,0.0715 0.33504,0.36244 0.50459,0.37843 0.15137,0.0505 0.65457,-0.0458 0.63848,0.10986 -0.0125,0.0853 -0.0493,0.27266 -0.18187,0.28964 -0.19419,0.0249 -0.52286,-0.13965 -0.58276,-0.19955 -0.17561,-0.21951 -0.19637,-0.0182 -0.40367,-0.0486 -0.32798,-0.0252 -0.22706,0.27752 0.10092,0.30275 0.15138,0.0252 0.17661,0.0505 0.25229,0.20184 0.15356,0.35847 -0.17193,0.83256 -0.55504,0.83256 -0.20184,0.0252 -0.20184,0.0252 -0.20184,-0.0757 -0.0112,-0.27225 -0.33066,-0.55067 -0.5601,-0.3681 -0.15138,0.0757 -0.17154,-0.0356 -0.14631,-0.2374 0.0252,-0.20183 0.0505,-0.27752 0.32798,-0.83256 0.0757,-0.15138 0.15137,-0.32798 0.1766,-0.40367 0.0923,-0.32312 0.35639,-0.5613 0.50459,-0.8578 0.35787,-0.44737 0.46108,-1.0052 0.80733,-1.43807 0.19757,-0.29629 0.53717,-1.07939 0.65596,-1.38761 0,-0.0252 0.0252,-0.0757 0.0505,-0.10091 0.0505,-0.0252 0.0757,-0.0757 0.0757,-0.10092 0,-0.0252 0.10092,-0.12615 0.20183,-0.20183 0.12615,-0.0757 0.22707,-0.15138 0.22707,-0.17661 0,-0.0252 0.0252,-0.0252 0.0505,-0.0252 0.0252,0 0.10091,-0.0757 0.15137,-0.15137 0.0505,-0.0757 0.10092,-0.15138 0.15138,-0.17661 0.0252,0 0.1766,-0.0757 0.35321,-0.15138 0.15137,-0.0757 0.35321,-0.12614 0.50458,-0.15137 0.37844,-0.0252 0.65596,-0.12615 0.8578,-0.32798 0.6055,-0.580274 1.00917,-0.983943 1.00917,-1.034401 0,-0.126147 0.25229,-0.07569 0.6055,0.100917 0.12615,0.05046 0.17661,0.100917 0.17661,0.176605 0.0505,0.277522 0.58027,0.555044 1.08476,0.529814 0.22517,0 0.54272,-0.02155 0.78846,-0.08204 -0.0128,0.02821 -0.008,0.06258 0.0152,0.08572 0.50409,0.504095 0.58941,0.539755 1.12628,0.759265 l 0.003,0.001 0.0308,0.0126 0.002,8.9e-4 c 0.193,0.0724 0.37199,0.19131 0.50161,0.34755 l 2e-4,-2e-4 1e-4,2e-4 c 0.0241,0.029 0.0472,0.0606 0.0689,0.0945 0.0214,0.0334 0.0405,0.0675 0.0565,0.10162 l 6.9e-4,0.002 1e-4,0 8e-4,0.002 c 0.24454,0.48164 0.45532,0.95136 0.61951,1.43707 0.0941,0.27842 0.17332,0.5628 0.23501,0.8581 z m -4.82614,-8.352184 c 0.0693,0 0.23084,0.07559 0.25359,0.149588 0.0125,0.04102 0,0.09148 -0.0378,0.141939 -0.0757,0.07569 -0.0252,0.151376 0.0757,0.126147 0.0252,-0.02523 0.15137,0 0.27752,0.02523 0.12615,0.02523 0.30275,0.05046 0.40357,0.05046 0.12615,0 0.25229,0.05046 0.6055,0.252292 0.22707,0.151376 0.4289,0.277522 0.4289,0.302752 0.0726,0.09228 0.2068,0.234115 0.17661,0.378439 -0.0252,0.05046 -0.22707,0.02523 -0.22707,-0.02523 0,0 0.0252,-0.02523 0.0757,-0.02523 0.10092,0 0.0505,-0.07569 -0.0757,-0.07569 -0.0757,0 -0.15137,-0.02523 -0.1766,-0.05046 0,-0.02523 -0.10092,-0.02523 -0.17661,-0.02523 -0.12614,0 -0.1766,0 -0.20183,0.07569 -0.0505,0.151376 0.0757,0.227064 0.37844,0.227064 0.2057,0.03427 0.38261,0.05801 0.58583,0.07152 0.10936,0.0073 0.1773,0.06883 0.0954,0.130318 -0.10092,0.05046 -0.32798,0.126146 -0.52982,0.151376 -0.37844,0.07569 -0.52981,0.151375 -0.55504,0.252292 -0.0252,0.227064 0.35321,0.277522 0.52981,0.100917 0.10092,-0.100917 0.2523,-0.05046 0.32798,0.100917 0.22707,0.428898 0.2523,0.529815 0.10092,0.580274 -0.15137,0.02523 -0.32798,0.151375 -0.32798,0.227063 0,0.05046 0.17343,0.130914 0.27752,0.126147 0.0252,-0.02523 0.0252,0 0.0252,0.05046 l -0.0252,0.126146 c -0.20183,0.05046 -0.40367,0.100918 -0.47935,0.126147 -0.0757,0.02523 -0.12615,0.05046 -0.12615,0.151375 -0.0252,0.176605 0.0505,0.277522 0.12615,0.151376 0.0505,-0.07569 0.1766,-0.100917 0.22706,-0.02523 0,0 0.0505,0.02523 0.10092,0.02523 0.15137,0 0.1766,0.07569 0.0757,0.201834 -0.0504,0.07569 -0.10091,0.100917 -0.27752,0.100917 -0.041,0.015 -0.45422,-0.0295 -0.45412,-0.100917 0,-0.05046 -0.0757,-0.07569 -0.2523,-0.100917 -0.15137,-0.02523 -0.25229,-0.05046 -0.25229,-0.126146 -0.0252,-0.176605 -0.0252,-0.176605 -0.25219,-0.100917 -0.22707,0.07569 -0.32798,0.02523 -0.4289,-0.201834 -0.0252,-0.05046 -0.0505,-0.07569 -0.0757,-0.100918 l 0.10092,0 c 0,-0.08781 -0.21763,-0.130814 -0.27752,-0.100917 -0.20184,0.05046 -0.63074,-0.504585 -0.50459,-0.630731 0.0757,-0.07569 0.17661,-0.05046 0.32798,0.100917 l 0.0757,0.07569 c 0.0469,-0.03755 0.27822,-0.176306 0.1766,-0.227063 -0.0504,-0.05046 -0.0252,-0.07569 0.10092,-0.151376 0.10092,-0.07569 0.22706,-0.151375 0.27752,-0.201834 0.0252,-0.05046 0.12615,-0.126146 0.20184,-0.176605 0.0757,-0.05046 0.12614,-0.100917 0.10091,-0.126146 -0.0252,-0.05046 -0.1766,-0.05046 -0.25229,0.02523 -0.0757,0.07569 -0.15137,0.07569 -0.4289,0.02523 -0.12614,-0.02523 -0.40366,-0.05046 -0.6055,-0.07569 -0.35321,0 -0.37844,0 -0.47935,-0.151376 -0.0505,-0.05046 -0.10092,-0.151376 -0.12615,-0.201834 -0.0252,-0.100917 0.0757,-0.454127 0.12615,-0.454127 0.13975,-0.0594 0.33781,-0.35907 0.65596,-0.327981 0.12614,0 0.15137,0 0.1766,-0.100917 0.0505,-0.07569 0.0505,-0.100917 -0.0252,-0.176605 -0.10091,-0.05046 -0.10091,-0.07569 -0.0505,-0.252292 0.0505,-0.176605 0.11224,-0.316757 0.21316,-0.316757 z"
     id="path41-6"
     style="fill:#cccccc;fill-rule:nonzero" /><path
     d="m -64.184796,3.140429 0.0252,-0.0505 c 0.14154,0.14155 0.31318,0.26273 0.45413,0.40367 0.27752,0.2523 0.45413,0.30275 0.65596,0.15138 0.23104,-0.13201 0.36036,-0.32818 0.54014,-0.49724 0.12128,-0.11383 0.33434,-0.26361 0.50389,-0.26252 0.21286,10e-4 0.5764,0.36314 0.69669,0.50747 0.10559,0.10558 0.27712,0.24365 0.40983,0.31208 0.0291,-0.0248 0.0746,-0.0548 0.11998,-0.085 0.0757,-0.0252 0.15138,-0.0505 0.15138,-0.0757 0.0252,0 0.0252,0.0252 0.0505,0.0505 0,0.0552 -0.11502,0.0646 -0.15138,0.10092 -0.0597,0.0597 -0.1326,0.0985 -0.18127,0.10399 -0.0882,0.01 -0.36781,-0.21474 -0.42423,-0.2806 -0.27752,-0.25229 -0.46247,-0.28874 -0.84081,-0.13737 -0.39801,0.19896 -0.56855,0.5468 -0.97749,0.69073 -0.0885,0.0203 -0.22656,-0.0582 -0.28129,-0.12446 -0.0863,-0.10449 -0.24087,-0.2362 -0.33166,-0.34576 -0.13379,-0.16131 -0.27941,-0.32142 -0.41956,-0.46158 z m 2.83909,-2.716116 c -0.0318,0.02513 0.033,0.219216 0.0475,0.269873 0,0.02523 0.0252,0.05046 0.0757,0.02523 0.018,-0.01331 0.0382,-0.03069 0.0252,-0.05046 0,-0.02533 -0.12307,-0.244644 -0.1484,-0.244644 z m -5.8666,16.213676 c 0.0921,-0.0307 0.47936,-0.1766 0.47936,-0.22706 0,-0.0757 -0.0505,-0.0757 -0.32798,-0.10092 -0.40347,-0.007 -0.55465,-0.23441 -1.0498,-0.2806 -0.2211,-0.0206 -0.21107,0.0509 -0.0855,0.23015 0.0782,0.12872 0.76333,0.47985 0.98394,0.37843 z m 4.41264,-5.89709 c -0.0875,0.051 -0.15197,-0.10767 -0.08,-0.14959 l 0.6349,-0.37099 c 0.0679,-0.0395 0.16389,0.10072 0.08,0.14959 l -0.6349,0.37099 z"
     id="path43-1"
     style="fill:#333333;fill-opacity:1;fill-rule:nonzero" /><path
     d="m -54.758586,37.916799 -3.17938,-1.78363 c -0.10797,0.38271 -0.27126,0.75052 -0.48919,1.093 l 3.01132,1.80827 c 0.31269,0.17471 0.70086,0.0566 0.87965,-0.24892 0.1772,-0.30325 0.074,-0.68477 -0.2224,-0.86872 z m -5.01844,-2.81545 -3.60083,-2.02023 -0.51025,0.86515 3.65994,2.19822 c 0.21216,-0.31963 0.36324,-0.67334 0.45114,-1.04314 z m -2.96513,-3.40128 -1.97275,-1.14088 -1.89816,3.28527 1.94852,1.14058 1.92239,-3.28497 z m -4.50809,5.24997 -0.56528,-0.70105 -1.38195,0.53339 c -0.39631,0.28467 -0.44528,0.83524 -0.15217,1.2115 0.30097,0.38658 0.83575,0.45949 1.22829,0.16597 l 0.87111,-1.20981 z m 0.51958,-0.36552 -0.67444,-0.82055 0.85929,-0.63659 0.62328,0.82372 -0.80813,0.63342 z m -0.16151,0.0243 -0.56636,-0.68765 c -0.14502,-0.1762 -0.39314,0.077 -0.28021,0.22578 l 0.5326,0.70214 c 0.14412,0.18992 0.47051,-0.0581 0.31397,-0.24027 z m 3.69103,-6.26232 c 1.80409,0.33533 3.48243,1.76654 3.64255,3.67135 0.1318,1.57385 -0.81906,3.06029 -2.30977,3.51979 -1.47989,0.4567 -3.1036,-0.21485 -3.97242,-1.47284 l -0.59935,0.47092 c 0.96974,1.61666 3.03536,2.59245 4.90054,2.43005 2.44565,-0.21345 4.09936,-2.57696 3.48998,-5.03572 -0.55365,-2.23637 -2.79786,-3.97431 -5.15153,-3.58355 z"
     id="path4228-3"
     style="fill:#cccccc;fill-rule:nonzero" /></g></svg>