<?xml version="1.0" encoding="UTF-8"?>
<svg xmlns="http://www.w3.org/2000/svg" xmlns:xlink="http://www.w3.org/1999/xlink" width="40px" height="40px" viewBox="0 0 40 40" version="1.1">
<g id="surface1">
<path style=" stroke:none;fill-rule:nonzero;fill:rgb(0%,0%,0%);fill-opacity:1;" d="M 20.070312 10.015625 C 14.527344 10.015625 10.015625 14.527344 10.015625 20.070312 C 10.015625 25.617188 14.527344 30.128906 20.070312 30.128906 C 25.613281 30.128906 30.125 25.617188 30.125 20.070312 C 30.125 14.527344 25.613281 10.015625 20.070312 10.015625 Z M 20.070312 10.015625 "/>
<path style=" stroke:none;fill-rule:nonzero;fill:rgb(0%,0%,0%);fill-opacity:1;" d="M 20.070312 7.0625 C 18.988281 7.0625 18.109375 6.183594 18.109375 5.101562 L 18.109375 1.960938 C 18.109375 0.878906 18.988281 0 20.070312 0 C 21.15625 0 22.03125 0.878906 22.03125 1.960938 L 22.03125 5.101562 C 22.03125 6.183594 21.152344 7.0625 20.070312 7.0625 Z M 20.070312 7.0625 "/>
<path style=" stroke:none;fill-rule:nonzero;fill:rgb(0%,0%,0%);fill-opacity:1;" d="M 20.070312 33.078125 C 18.988281 33.078125 18.109375 33.957031 18.109375 35.042969 L 18.109375 38.179688 C 18.109375 39.265625 18.988281 40.140625 20.070312 40.140625 C 21.15625 40.140625 22.03125 39.265625 22.03125 38.179688 L 22.03125 35.042969 C 22.03125 33.957031 21.152344 33.078125 20.070312 33.078125 Z M 20.070312 33.078125 "/>
<path style=" stroke:none;fill-rule:nonzero;fill:rgb(0%,0%,0%);fill-opacity:1;" d="M 29.269531 10.871094 C 28.503906 10.105469 28.503906 8.863281 29.269531 8.097656 L 31.488281 5.878906 C 32.253906 5.113281 33.496094 5.113281 34.261719 5.878906 C 35.03125 6.644531 35.03125 7.886719 34.261719 8.652344 L 32.042969 10.871094 C 31.277344 11.636719 30.035156 11.636719 29.269531 10.871094 Z M 29.269531 10.871094 "/>
<path style=" stroke:none;fill-rule:nonzero;fill:rgb(0%,0%,0%);fill-opacity:1;" d="M 10.871094 29.269531 C 10.105469 28.503906 8.863281 28.503906 8.097656 29.269531 L 5.878906 31.488281 C 5.113281 32.253906 5.113281 33.5 5.878906 34.265625 C 6.644531 35.03125 7.886719 35.03125 8.652344 34.265625 L 10.871094 32.042969 C 11.636719 31.277344 11.636719 30.035156 10.871094 29.269531 Z M 10.871094 29.269531 "/>
<path style=" stroke:none;fill-rule:nonzero;fill:rgb(0%,0%,0%);fill-opacity:1;" d="M 33.078125 20.070312 C 33.078125 18.988281 33.957031 18.109375 35.042969 18.109375 L 38.179688 18.109375 C 39.265625 18.109375 40.140625 18.988281 40.140625 20.070312 C 40.140625 21.15625 39.265625 22.03125 38.179688 22.03125 L 35.042969 22.03125 C 33.957031 22.03125 33.078125 21.15625 33.078125 20.070312 Z M 33.078125 20.070312 "/>
<path style=" stroke:none;fill-rule:nonzero;fill:rgb(0%,0%,0%);fill-opacity:1;" d="M 7.0625 20.070312 C 7.0625 18.988281 6.183594 18.109375 5.097656 18.109375 L 1.960938 18.109375 C 0.878906 18.109375 0 18.988281 0 20.070312 C 0 21.15625 0.878906 22.03125 1.960938 22.03125 L 5.101562 22.03125 C 6.183594 22.03125 7.0625 21.15625 7.0625 20.070312 Z M 7.0625 20.070312 "/>
<path style=" stroke:none;fill-rule:nonzero;fill:rgb(0%,0%,0%);fill-opacity:1;" d="M 29.269531 29.269531 C 30.035156 28.503906 31.277344 28.503906 32.042969 29.269531 L 34.261719 31.492188 C 35.03125 32.253906 35.03125 33.5 34.261719 34.265625 C 33.496094 35.03125 32.253906 35.03125 31.488281 34.265625 L 29.269531 32.042969 C 28.503906 31.277344 28.503906 30.035156 29.269531 29.269531 Z M 29.269531 29.269531 "/>
<path style=" stroke:none;fill-rule:nonzero;fill:rgb(0%,0%,0%);fill-opacity:1;" d="M 10.871094 10.871094 C 11.636719 10.105469 11.636719 8.863281 10.871094 8.097656 L 8.652344 5.878906 C 7.886719 5.113281 6.644531 5.113281 5.878906 5.878906 C 5.113281 6.644531 5.113281 7.886719 5.878906 8.652344 L 8.097656 10.871094 C 8.863281 11.640625 10.105469 11.640625 10.871094 10.871094 Z M 10.871094 10.871094 "/>
</g>
</svg>
